<?xml version="1.0" encoding="utf-8"?>
<!-- Generator: Adobe Illustrator 17.0.0, SVG Export Plug-In . SVG Version: 6.00 Build 0)  -->
<!DOCTYPE svg PUBLIC "-//W3C//DTD SVG 1.1//EN" "http://www.w3.org/Graphics/SVG/1.1/DTD/svg11.dtd">
<svg version="1.1" id="Layer_1" xmlns="http://www.w3.org/2000/svg" xmlns:xlink="http://www.w3.org/1999/xlink" x="0px" y="0px"
	 width="200px" height="200px" viewBox="0 0 200 200" enable-background="new 0 0 200 200" xml:space="preserve">
<circle fill="#86AC34" cx="100" cy="100" r="99.089"/>
<g>
	<path fill="#FAFCFD" d="M99.954,40.145c12.324,21.911,24.625,42.256,35.382,63.387c8.609,16.912,2.058,37.804-13.388,48.431
		c-2.464,1.695-4.861,3.868-8.618,2.192c9.774-9.964,8.82-20.419,1.826-31.498c-5.244-8.307-9.809-17.043-15.136-26.393
		c-6.499,11.513-12.84,22.122-18.538,33.065c-3.685,7.077-2.623,11.404,3.802,24.81c-3.261,1.707-5.259-0.917-7.356-2.369
		c-14.752-10.214-21.697-30.044-13.775-46.333C74.821,83.504,87.533,62.568,99.954,40.145z"/>
	<path fill="#FAFCFD" d="M99.98,119.837c4.316,7.759,8.259,14.394,11.752,21.257c3.277,6.437,0.462,12.344-4.253,16.153
		c-4.479,3.618-11.062,3.411-15.554-0.246c-4.631-3.77-6.603-9.728-3.738-15.656C91.556,134.371,95.61,127.728,99.98,119.837z"/>
</g>
</svg>
