<?xml version="1.0" encoding="utf-8"?>
<!-- Generator: Adobe Illustrator 19.2.1, SVG Export Plug-In . SVG Version: 6.00 Build 0)  -->
<svg version="1.1" id="Layer_1" xmlns="http://www.w3.org/2000/svg" xmlns:xlink="http://www.w3.org/1999/xlink" x="0px" y="0px"
	 viewBox="0 0 200 200" style="enable-background:new 0 0 200 200;" xml:space="preserve">
<style type="text/css">
	.st0{fill:#86AC34;}
	.st1{fill:#F9F9F9;}
</style>
<circle class="st0" cx="100" cy="100" r="99.1"/>
<g>
	<path class="st1" d="M149.7,102.1c0,17.8-0.1,35.6,0,53.4c0.1,6.6-2.1,10.7-9.5,10.6c-1.4,0-3.3-0.1-4.2,0.7
		c-15.2,12.8-32.9,3.2-49.2,5.8c-8.2-9.8-19.6-5.4-29.7-6.8c-6.9-1-6.5-6.5-6.5-11.5c0-29.5,0-58.9,0-88.4c0-4.7,0.2-9.4,0-14
		c-0.5-8.5,0.4-15.6,11.6-14.7c15.2-13,33.3-4,49.9-6.5c3.8-0.6,7.2,0.2,9.8,4.1c3.1,4.7,8.6,2.4,13,2.5c14.2,0.3,14.7,0.7,14.8,15
		C149.8,68.8,149.7,85.4,149.7,102.1z M142.1,101.6c0-15.5-0.4-30.9,0.2-46.4c0.3-8.2-2.8-10.8-10.7-10.4c-9,0.5-18.1,0.3-27.1,0
		c-6-0.2-9.7,1.4-9,8.3c0.5,5.3-2.5,7.3-7.4,7.3c-2.6,0-5.3-0.1-7.9,0.1c-3.2,0.3-8.2-1-8.2,4c-0.1,4.9,4.7,4.2,8.1,4.2
		c14,0.1,28,0.2,42,0c6.9-0.1,11.7,2.1,11.6,9.7c-0.2,7.4-5.4,8.7-11.6,8.7c-14-0.1-28-0.1-42,0.1c-2.8,0-7.7-1.7-7.9,2.8
		c-0.2,4.5,4.7,3.3,7.6,3.3c13.7,0.1,27.4,0.2,41.1-0.3c6.7-0.2,11,1.8,11.1,8.9c0.1,7.1-4.4,9.5-10.9,9.5c-8.8-0.1-17.5,0-26.3,0
		c-4.7,0-9.4-0.3-14,0.1c-3.1,0.2-8.4-1.7-8.4,3.3c0,4.2,5,2.7,8,2.8c4.1,0.3,8.2,0.1,12.2,0.1c10.8,0,21.6,0.1,32.4,0
		c4.9,0,7.8,2.3,8.3,7.1c0.5,4.8-1.2,8.8-6.2,10.2c-2.7,0.8-5.8,0.8-8.7,0.8c-13.4,0.1-26.8,0-40.3,0.1c-3.1,0-7.2-0.4-7,4.3
		c0.2,4.1,3.9,3.7,6.7,3.7c8.5,0.1,16.9,0,25.4,0.1c3.6,0,7.8,0.3,7.5,5.1c-0.4,8.7,4.7,9.3,11.2,8.9c3.8-0.2,7.6-0.3,11.4,0
		c6.4,0.5,8.9-2.1,8.8-8.6C141.9,133.7,142,117.7,142.1,101.6z M58.4,101.7c0,16,0,32.1,0,48.1c0,4.3,0.2,8.4,6.2,8.3
		c11.7-0.1,23.3,0,35-0.1c2.4,0,4.9-0.4,5.1-3.5c0.3-3.6-2.3-4.4-5.1-4.5c-7.6-0.1-15.2-0.1-22.8-0.2c-6.9-0.1-12.2-2.2-12-10.4
		c0.2-7.9,5.3-9.4,11.9-9.4c14,0.1,28,0.1,42,0c3.3,0,8.2,1,8.3-3.9c0-5.1-5-3.8-8.2-3.9c-14.6-0.2-29.2-0.1-43.8-0.1
		c-5.4,0-9.5-1.8-9.4-7.8c0.1-5.6,3.7-8.3,9.1-8.6c3.8-0.2,7.6-0.1,11.4-0.2c11.4,0,22.8,0,34.1-0.1c2.4,0,5-0.1,5.3-3.3
		c0.3-3.5-2.3-4.3-5.2-4.4c-1.7-0.1-3.5,0-5.2,0.2c-13.1,1.8-26.2,0.6-39.3,1c-6,0.2-10.5-2.5-10.3-9.1c0.2-6.3,4.6-8.2,10.2-8.4
		c2.9-0.1,5.8-0.1,8.8-0.1c12,0,23.9,0,35.9-0.1c2.7,0,6.8,0.6,6.6-3.6c-0.2-4-4.2-3.2-6.9-3.3c-3.8-0.2-7.6-0.1-11.4-0.1
		c-11.1-0.1-22.2,0-33.3-0.3c-6.2-0.2-9.8-3.8-9.8-10.1c0.1-6.4,3.7-9.4,10.1-9.3c3.2,0.1,6.4,0,9.6-0.1c2.9,0,5.2-0.9,5.3-4.4
		c0.2-3.8-1.9-5.3-5.4-5.3c-6.1-0.1-12.3,0.2-18.4-0.2c-6.4-0.4-8.9,2.2-8.8,8.7C58.6,69.6,58.4,85.7,58.4,101.7z"/>
</g>
</svg>
