<?xml version="1.0" encoding="utf-8"?>
<!-- Generator: Adobe Illustrator 19.2.1, SVG Export Plug-In . SVG Version: 6.00 Build 0)  -->
<svg version="1.1" id="Layer_1" xmlns="http://www.w3.org/2000/svg" xmlns:xlink="http://www.w3.org/1999/xlink" x="0px" y="0px"
	 viewBox="0 0 200 200" style="enable-background:new 0 0 200 200;" xml:space="preserve">
<style type="text/css">
	.st0{fill:#86AC34;}
	.st1{fill:#FFFFFF;}
</style>
<circle class="st0" cx="100" cy="100" r="99.1"/>
<path class="st1" d="M119.9,19.8c0,8.2-0.2,16,0.1,23.8c0.3,7.2,3.7,13.4,7.8,19.1c4.3,5.9,8.8,11.7,12.7,17.9
	c10.8,17.4,6.7,34.2-11,44.6c-4.8,2.8-10.1,4.6-15.1,6.9c2.7-6.7,6-12.5,7.5-18.8c1.6-6.7-0.6-13.4-3.8-19.7
	c-1.5,4.4-2.5,8.6-4.5,12.3c-1.6,2.9-4.1,5.8-6.9,7.6c-7,4.4-14.1,0.5-14.7-7.7c-0.1-1.1,0-2.3,0-3.6c-10.2,4.7-11.8,14.7-5,29.5
	c-21.6-2.5-33.3-23.4-24.5-44.2c1.4-3.4,3.1-6.7,5-9.8c5.8-9.8,13.1-19,11.2-31.8c7.8,3.1,12.7,9.7,12.7,16.9c0,2.7-0.9,5.6-0.1,7.9
	c1,2.9,2.9,6,5.3,7.6c1.6,1,5.9,0.4,7-1.1c1.8-2.3,2.7-5.9,2.6-8.9c-0.1-2.6-2-5.2-3.1-7.8C97.7,46.7,106.1,25.6,119.9,19.8z"/>
<path class="st1" d="M148.2,139.5c-0.2,3.9-2.9,6.2-7.3,7.2c-22.9,5.5-45.8,11.1-68.7,16.7c-3.4,0.8-6.8,1.6-10.2,2.4
	c-5.4,1.3-9.4-0.7-10.7-5.3c-1.2-4.4,1.4-8.3,6.9-9.7c15.8-4,31.6-7.8,47.4-11.6c10.6-2.6,21.3-5.2,31.9-7.7
	C143.6,130.3,148.1,133.4,148.2,139.5z"/>
<path class="st1" d="M85.5,138.7c-9.6,2.3-19.1,4.8-28.8,6.8c-3.7,0.7-6.7-4.5-5.3-8.7c1.4-4.2,4.6-6.3,8.8-5.4
	c8.4,1.7,16.7,3.9,25.1,5.9C85.3,137.8,85.4,138.3,85.5,138.7z"/>
<path class="st1" d="M113.9,158.9c9.6-2.3,19.1-4.8,28.8-6.6c1.4-0.3,4.3,2.3,5.1,4.2c1.4,3.3,0.3,6.7-3,8.5
	c-1.8,0.9-4.2,1.5-6.1,1.1c-8.2-1.8-16.4-3.9-24.6-6C114,159.8,113.9,159.4,113.9,158.9z"/>
</svg>
