<?xml version="1.0" standalone="no"?>
<!DOCTYPE svg PUBLIC "-//W3C//DTD SVG 1.1//EN" "http://www.w3.org/Graphics/SVG/1.1/DTD/svg11.dtd" >
<svg xmlns="http://www.w3.org/2000/svg">
<metadata>Generated by IcoMoon</metadata>
<defs>
<font id="icomoon" horiz-adv-x="1024">
<font-face units-per-em="1024" ascent="960" descent="-64" />
<missing-glyph horiz-adv-x="1024" />
<glyph unicode="&#x20;" horiz-adv-x="512" d="" />
<glyph unicode="&#xe600;" glyph-name="jragic" d="M26.662 931.488c26.924-3.663 63.119 8.042 77.087-7.342 2.976-3.277-5.926-20.576 11.011-14.684 103.895 0 229.905 0 356.079 0 126.491 0 256.399 10.329 356.079 0 70.345-7.287 134.001-53.169 161.526-106.455 75.281-145.763-41.199-281.235-154.184-293.676-104.158-11.476-270.711 0-392.793 0-77.609 0-150.845 12.349-154.173-58.737-3.516-74.947 70.059-66.075 154.173-66.075 47.418 0 88.003 0 132.154 0 127.823 0 267.025 15.708 337.729-25.696 66.966-39.212 134.113-157.566 77.090-267.981-25.842-50.036-88.542-99.277-161.526-106.455-101.171-9.957-229.472 0-356.079 0-123.368 0-248.204 0-352.41 0-16.285 6.646-13.339-10.636-18.353-14.688-14.541-11.749-56.351-9.076-84.432-3.673-6.031 50.746-6.031 125.464 0 176.207 20.937 4.021 69.318 9.742 84.432-3.669 8.301-1.492-1.939-21.518 14.681-14.684 188.122 0 407.945 0 616.724 0 69.871 0 141.445-8.492 143.165 58.73 2.321 91.331-154.419 66.082-245.961 66.082-110.288 0-226.99-9.783-312.030 0-79.712 9.175-155.238 84.579-165.188 172.537-11.38 100.55 59.143 209.859 165.188 223.925 78.599 10.424 192.283 0 312.030 0 93.249 0 244.347-23.77 245.961 62.406 1.287 68.874-66.792 62.406-143.165 62.406-198.383 0-430.892 0-613.052 0-16.592 7.004-12.281-9.892-18.353-14.681-13.694-10.81-56.429-9.677-84.432-3.673-5.868 49.384-6.243 123.208 0 172.53 2.697 3.43 6.68 5.564 11.022 7.345zM41.346 780.977c11.008 0 22.023 0 33.034 0 0 40.38 0 80.766 0 121.146-11.015 0-22.030 0-33.034 0 0-40.38 0-80.766 0-121.146zM103.752 869.086c0-22.030 0-44.056 0-66.075 156.778 0 390.574 0 568.992 0 118.333 0 233.137 12.312 231.27-95.447-1.587-91.983-86.62-91.771-183.545-91.771-45.599 0-95.587 0-139.496 0-104.107 0-217.071 11.486-275.323-3.673-44.308-11.53-96.611-54.644-113.797-99.116-45.37-117.405 36.659-205.79 102.789-227.598 65.171-21.497 178.575-7.342 271.643-7.342 45.882 0 93.617 0 139.5 0 50.309 0 102.332 7.12 135.823-3.669 37.67-12.141 63.184-55.327 62.406-91.781-2.27-106.264-120.074-91.771-234.936-91.771-186.027 0-404.627 0-565.327 0 0-25.699 0-51.388 0-77.087 197.25 0 408.057 0 602.033 0 70.54 0 136.69-4.717 183.542 18.357 126.857 62.437 112.701 262.796-14.677 312.026-68.615 26.511-181.385 11.015-275.323 11.015-44.209 0-95.089 0-143.169 0-50.681 0-105.161-7.656-139.496 3.669-28.266 9.322-58.737 37.908-58.737 88.102 0 52.46 31.389 78.94 62.409 88.105 34.563 10.206 86.903 3.669 135.823 3.669 48.237 0 98.598 0 143.169 0 94.133 0 206.909-15.425 275.323 11.015 140.486 54.296 134.666 271.514-3.673 319.372-49.425 17.094-115.535 11.011-179.876 11.011-193.266 0-393.964 0-583.68 0-4.28-0.614-3.987-5.806-3.669-11.011zM41.346-8.271c11.008 0 22.023 0 33.034 0-2.427 40.397 4.881 90.528-3.669 124.809-6.431-10.861-19.555 2.116-29.365 0 0-41.602 0-83.207 0-124.809z" />
<glyph unicode="&#xe601;" glyph-name="heating-floor" d="M1004.824 929.256c-3.577-4.485-7.608-8.516-12.1-12.090 1.772-5.185 6.284-7.632 9.892-10.988 2.669 6.12 9.68 7.898 12.1 14.288-3.669 2.557-6.803 5.652-9.892 8.789zM976.227 900.673c-3.809-5.332-9.571-8.731-13.186-14.288 3.97-2.277 5.932-6.533 9.895-8.793 4.598 4.195 8.998 8.595 13.186 13.186-2.27 4.335-4.349 8.841-9.895 9.895zM997.123 877.592c-3.219-5.584-9.786-7.803-12.093-14.295 1.966-3.536 7.226-3.761 7.694-8.796 3.721 3.68 15.602 9.448 15.384 14.298-0.126 3.007-7.455 5.994-10.984 8.793zM957.542 861.102c-1.772 5.181-6.277 7.632-9.892 10.988-2.010-6.045-14.517-10.045-14.298-15.387 0.147-3.273 7.499-4.806 9.895-8.793 4.956 4.202 8.783 9.544 14.295 13.193zM965.239 824.818c2.488 0.106 12.397 14.24 13.182 15.394-2.966 3.253-5.076 7.373-9.892 8.796-3.936-4.861-8.322-9.26-13.186-13.199 3.096-3.99 5.868-11.165 9.895-10.991zM927.863 833.618c-2.983 3.239-5.086 7.373-9.895 8.786-3.939-4.847-8.339-9.25-13.193-13.186 1.775-5.192 6.281-7.642 9.895-10.998 2.724 6.81 10.469 8.581 13.193 15.398zM936.653 796.239c3.946 4.85 8.329 9.25 13.196 13.186-1.785 5.192-6.294 7.642-9.888 11.001-1.802-6.24-14.527-10.083-14.298-15.391 0.089-1.952 9.909-8.489 10.991-8.796zM899.287 803.932c-2.744 3.867-6.854 6.356-9.899 9.895-1.802-6.236-14.527-10.093-14.295-15.398 0.075-1.942 9.912-8.482 10.981-8.796 2.55 6.632 9.448 8.895 13.213 14.298zM906.977 766.553c2.485 0.106 12.401 14.234 13.189 15.391-3.441 2.789-6.192 6.27-9.895 8.793-3.932-4.857-8.339-9.25-13.182-13.186 3.089-4 5.84-11.179 9.888-10.998zM869.594 775.345c-3.963 2.266-5.932 6.523-9.885 8.796-3.584-5.946-10.527-8.537-13.199-15.387 2.922-3.311 5.765-6.7 9.888-8.803 2.751 6.789 10.192 8.875 13.196 15.394zM877.295 737.969c2.826 4.857 14.493 9.441 14.292 14.288-0.034 0.495-9.254 8.929-10.998 8.803-3.939-4.864-8.342-9.257-13.193-13.196 1.939-4.663 5.222-7.963 9.899-9.895zM839.912 745.663c-2.987 3.249-5.082 7.369-9.899 8.796-3.932-4.857-8.335-9.25-13.182-13.189 1.932-4.669 5.222-7.963 9.885-9.892 4.035 5.13 10.237 8.086 13.196 14.285zM848.708 708.284c3.936 4.857 8.325 9.257 13.199 13.196-1.792 5.181-6.304 7.632-9.899 10.988-1.809-6.226-14.524-10.086-14.295-15.391 0.085-1.942 9.912-8.482 10.994-8.793zM811.325 714.878c-1.775 5.188-6.294 7.639-9.888 10.994-1.802-6.229-14.527-10.083-14.288-15.387 0.072-1.942 9.902-8.479 10.981-8.796 3.311 5.485 8.001 9.591 13.196 13.189zM819.016 678.608c2.481 0.096 12.414 14.23 13.203 15.384-4.386 1.853-4.475 7.991-9.892 8.796-3.939-4.857-8.342-9.26-13.203-13.196 3.106-3.99 5.864-11.165 9.892-10.984zM781.643 685.199c-1.778 5.181-6.291 7.632-9.899 10.994-4.096-5.789-10.172-9.619-14.285-15.398 5.495-0.741 4.273-8.178 10.988-7.694 5.185 3.246 6.823 10.039 13.196 12.097zM789.34 650.011c2.833 4.867 14.503 9.452 14.292 14.298-0.020 0.478-9.257 8.926-10.994 8.793-3.577-5.949-10.52-8.533-13.186-15.387 5.147-0.707 4.236-7.489 9.888-7.704zM742.065 666.511c-3.577-5.949-10.527-8.533-13.193-15.391 5.127-0.741 4.451-7.284 9.899-7.7 3.925 4.861 8.779 8.803 13.189 13.196-1.929 4.659-5.233 7.963-9.895 9.895zM760.75 620.339c3.939 4.857 8.339 9.25 13.193 13.186-1.778 5.192-6.291 7.639-9.885 10.998-4.12-5.782-10.172-9.612-14.295-15.391 4.994-1.615 5.308-7.881 10.988-8.793zM722.278 626.93c-2.584 4.017-3.884 9.322-9.895 9.895-1.591-5.99-13.421-9.021-13.196-14.295 0.126-2.901 7.393-5.96 10.998-8.786 3.041 5.376 7.967 8.881 12.093 13.186zM731.064 590.65c2.488 0.109 12.414 14.234 13.199 15.387-3.335 2.891-6.007 6.472-9.885 8.796-3.946-4.85-8.339-9.25-13.206-13.186 3.113-3.99 5.868-11.168 9.892-10.998zM693.685 600.545c-5.311 0.536-5.311 6.403-9.885 7.69-3.587-5.949-10.53-8.523-13.196-15.384 3.543-2.328 5.243-6.489 9.895-7.697 4.854 4.673 10.247 8.81 13.186 15.391zM701.389 562.067c2.833 4.857 14.503 9.438 14.288 14.298-0.014 0.481-9.254 8.926-10.988 8.793-1.772-6.055-13.36-9.117-13.193-14.295 0.092-2.881 7.356-5.308 9.892-8.796zM654.114 578.557c-3.939-4.857-8.325-9.25-13.193-13.186 1.932-4.663 5.233-7.963 9.888-9.892 5.352 3.444 8.236 9.366 13.196 13.196-1.925 4.656-5.226 7.95-9.892 9.882zM672.802 532.378c3.939 4.857 8.339 9.264 13.193 13.199-1.778 5.181-6.291 7.629-9.895 10.994-1.789-6.233-14.513-10.093-14.295-15.387 0.085-1.949 9.916-8.492 10.998-8.806zM611.236 534.583c0.14-3.13 7.468-4.867 9.888-8.793 4.458 4.714 8.376 9.957 14.298 13.193-1.778 5.181-6.294 7.636-9.895 10.988-1.792-6.298-14.513-9.967-14.292-15.387zM643.12 502.705c2.488 0.099 12.401 14.234 13.193 15.387-2.823 3.403-5.533 6.926-9.888 8.796-3.946-4.861-8.342-9.25-13.196-13.189 3.103-3.997 5.861-11.175 9.892-10.994zM595.845 520.294c-3.939-4.857-8.339-9.26-13.193-13.196 1.935-4.663 5.229-7.963 9.899-9.895 4.717 4.079 8.591 9.011 13.186 13.199-1.201 5.383-6.847 6.332-9.892 9.892zM616.735 497.203c-1.772-6.045-13.353-9.117-13.193-14.288 0.096-2.891 7.356-5.315 9.892-8.796 5.222 4.301 9.987 9.062 14.295 14.292-3.953 2.645-5.543 7.649-10.994 8.793zM552.974 477.413c1.751-4.84 5.69-7.509 9.888-9.895 4.516 4.284 8.684 8.912 13.189 13.196-1.929 4.663-5.222 7.963-9.892 9.892-3.936-4.854-8.329-9.254-13.186-13.193zM588.148 468.617c-1.789-6.229-14.507-10.083-14.281-15.387 0.082-1.939 9.899-8.482 10.991-8.796 3.936 4.857 8.339 9.254 13.189 13.189-1.775 5.188-6.284 7.639-9.899 10.994zM537.59 462.022c-1.806-6.226-14.527-10.086-14.298-15.387 0.085-1.952 9.905-8.479 10.998-8.793 3.396 5.39 8.199 9.383 13.193 13.182-1.785 5.192-6.291 7.646-9.892 10.998zM558.462 438.941c-4.308-4.475-8.093-9.489-13.189-13.196 1.662-2.396 6.141-11.158 9.899-10.991 2.335 0.092 14.264 16.084 14.295 15.387-0.031 0.765-9.407 8.868-11.005 8.8zM507.901 432.336c-3.939-4.857-8.339-9.254-13.189-13.182 1.929-4.673 5.226-7.967 9.888-9.895 4.482 5.038 10.131 8.926 13.193 15.384-4.137 1.734-5.588 6.141-9.892 7.694zM528.78 409.255c-1.574-5.994-13.411-9.021-13.186-14.298 0.123-2.898 7.39-5.96 10.998-8.789 3.577 5.946 10.516 8.537 13.189 15.394-5.721 0.509-4.376 8.086-11.001 7.694zM478.218 402.65c-3.581-5.939-10.527-8.527-13.193-15.387 5.765-0.089 4.297-7.427 9.899-7.694 4.734 4.058 8.677 8.905 13.189 13.196-1.935 4.663-5.236 7.96-9.895 9.885zM500.2 380.665c-4.113-5.775-10.175-9.602-14.298-15.387 4.209-2.386 6.018-7.192 11.001-8.789 3.946 4.847 8.342 9.25 13.193 13.182-1.778 5.192-6.284 7.646-9.895 10.994zM459.537 365.281c-3.98 2.263-5.946 6.526-9.899 8.793-1.812-6.233-14.531-10.086-14.298-15.394 0.079-1.939 9.919-8.482 10.984-8.796 3.13 6.407 9.987 9.083 13.213 15.398zM467.224 327.898c2.83 4.861 14.503 9.441 14.292 14.292-0.024 0.492-9.243 8.929-10.991 8.796-3.939-4.857-8.339-9.254-13.189-13.189 1.925-4.673 5.222-7.963 9.888-9.899zM429.844 334.496c-1.935 4.656-5.233 7.963-9.895 9.895-3.932-4.861-8.332-9.25-13.196-13.199 1.932-4.659 5.239-7.96 9.895-9.885 4.482 4.314 9.155 8.431 13.196 13.189zM438.637 298.216c3.577 5.949 10.53 8.537 13.196 15.384-4.185 2.065-6.147 6.332-9.899 8.8-1.799-6.226-14.52-10.080-14.292-15.387 0.085-1.942 9.916-8.482 10.994-8.796zM400.162 304.814c-1.935 4.669-5.236 7.96-9.899 9.895-1.758-6.106-13.414-9.114-13.186-14.292 0.137-3.28 7.479-4.806 9.885-8.796 5.045 3.761 8.291 9.298 13.199 13.193zM406.757 268.53c6.864 2.673 9.438 9.615 15.404 13.203-1.795 5.181-6.304 7.625-9.905 10.984-3.577-5.939-10.53-8.527-13.196-15.384 1.154-4.352 7.356-3.649 7.697-8.803zM361.677 286.119c-4.14-5.755-10.349-9.424-14.285-15.384 3.956-2.266 5.926-6.533 9.892-8.803 4.154 5.014 8.94 9.38 14.288 13.189-1.775 5.195-6.287 7.646-9.895 10.998zM379.269 238.855c2.468 0.092 12.493 14.346 13.196 15.391-2.983 3.249-5.086 7.376-9.892 8.796-3.577-5.949-10.527-8.533-13.199-15.398 5.714-1.239 5.328-8.957 9.895-8.789zM341.89 247.644c-2.98 3.253-5.093 7.38-9.899 8.8-4.318-4.471-8.090-9.496-13.189-13.196 1.932-4.659 5.243-7.96 9.895-9.888 3.659 5.502 10.301 8.018 13.193 14.285zM350.686 210.265c3.581 5.949 10.523 8.53 13.186 15.401-4.543 1.673-6.065 6.373-10.988 7.694-1.594-6.001-13.418-9.015-13.186-14.292 0.119-2.912 7.383-5.97 10.988-8.803zM313.303 217.962c-3.983 2.604-5.919 7.27-10.981 8.796-1.591-5.994-13.421-9.018-13.196-14.298 0.113-2.898 7.38-5.96 10.998-8.793 2.881 6.277 9.533 8.783 13.179 14.295zM334.196 193.772c-1.778 5.192-6.291 7.646-9.892 10.998-3.584-5.949-10.527-8.533-13.199-15.387 3.185-3.045 6.458-6.011 9.892-8.793 3.939 4.854 8.339 9.243 13.199 13.182zM283.621 187.18c-1.775 5.192-6.284 7.639-9.899 10.991-1.782-6.229-14.507-10.076-14.281-15.394 0.075-1.942 9.902-8.479 10.994-8.783 3.297 5.489 8.233 9.359 13.186 13.186zM291.314 152.003c2.843 4.854 14.51 9.438 14.298 14.288-0.017 0.492-9.25 8.94-10.991 8.793-3.939-4.85-8.339-9.257-13.199-13.182 1.932-4.676 5.236-7.967 9.892-9.899zM242.951 168.489c-2.847-5.591-7.642-9.216-12.093-13.186 1.932-4.673 5.229-7.967 9.895-9.895 4.321 4.84 10.032 8.294 13.186 14.288-3.383 3.212-4.925 8.264-10.988 8.793zM262.741 122.313c3.929 4.861 8.335 9.264 13.182 13.196-1.765 5.181-6.277 7.632-9.888 10.994-1.792-6.233-14.513-10.090-14.288-15.398 0.079-1.939 9.902-8.479 10.994-8.793zM214.368 138.807c-1.587-5.99-13.425-9.015-13.203-14.295 0.126-2.901 7.393-5.963 11.005-8.793 3.833 4.966 7.694 9.885 13.186 13.193-3.096 3.867-4.837 9.086-10.988 9.895zM246.238 108.025c-4.209 2.014-4.908 7.54-9.892 8.796-3.936-4.857-8.332-9.264-13.186-13.196 1.99-4.97 5.547-8.387 9.899-10.998 3.574 5.949 10.51 8.54 13.179 15.398zM185.777 110.223c-4.113-5.786-10.182-9.615-14.295-15.391 4.874-1.731 6.035-7.161 11.001-8.8 3.4 5.393 7.95 9.643 13.193 13.196-1.775 5.181-6.291 7.639-9.899 10.994zM206.667 87.136c-3.942-4.857-8.335-9.25-13.196-13.186 1.935-4.669 5.233-7.963 9.899-9.899 2.833 4.85 14.5 9.445 14.295 14.292-0.020 0.495-9.254 8.926-10.998 8.793zM156.092 80.544c-3.939-4.861-8.335-9.26-13.186-13.196 1.935-4.663 5.229-7.963 9.895-9.895 4.553 4.236 8.933 8.653 13.186 13.196-1.929 4.659-5.219 7.96-9.895 9.895zM178.084 58.552c-1.785-6.24-14.52-10.086-14.295-15.387 0.089-1.942 9.912-8.489 11.001-8.8 3.936 4.861 8.332 9.25 13.189 13.189-1.778 5.192-6.287 7.642-9.895 10.998zM127.519 51.958c-1.809-6.24-14.531-10.086-14.298-15.387 0.089-1.946 9.912-8.492 10.991-8.8 3.577 5.953 9.745 9.312 13.199 15.398-3.966 2.266-5.936 6.516-9.892 8.789zM148.398 28.87c-3.936-4.864-8.339-9.257-13.186-13.193 3.092-4 5.85-11.165 9.895-10.994 2.478 0.102 12.397 14.237 13.186 15.391-3.564 2.662-5.226 7.236-9.895 8.796zM97.833 22.272c-3.584-5.96-10.738-8.322-13.196-15.391 3.567-2.301 5.123-6.605 9.899-7.69 4.567 4.588 9.957 8.366 13.189 14.285-3.959 2.266-5.936 6.533-9.892 8.796zM118.712-0.806c-3.577-5.949-10.516-8.54-13.193-15.404 3.922-2.297 6.287-6.171 9.902-8.796 1.782 6.243 14.51 10.097 14.295 15.404-0.017 0.399-9.199 8.926-11.005 8.796zM68.147-7.417c-4.233-4.56-8.25-9.329-13.186-13.182 1.932-4.673 5.222-7.963 9.895-9.895 4.526 4.639 10.022 8.294 13.186 14.288-2.99 3.243-5.082 7.383-9.895 8.789zM90.139-29.396c-1.799-6.229-14.52-10.080-14.295-15.398 0.082-1.939 9.909-8.475 10.988-8.793 3.939 4.857 8.329 9.257 13.203 13.193-1.795 5.188-6.298 7.646-9.895 10.998zM39.564-35.994c-4.465-4.69-7.994-10.329-14.292-13.189 1.775-5.188 6.277-7.646 9.892-10.998 5.181 3.98 8.571 9.742 14.288 13.196-1.509 5.441-6.769 7.151-9.888 10.991zM13.179 897.376c10.004-0.413 16.084 8.39 25.286 17.596 7.922 7.919 30.891 27.368 9.888 29.676-7.154-6.799-14.899-13.804-21.989-20.883-6.113-6.117-14.729-12.595-16.483-21.989 1.488-1.082 2.198-2.935 3.297-4.4zM492.513 333.397c-0.075 0.669-0.164 1.307-1.103 1.099-16.766-19.145-36.919-34.912-52.77-54.972 2.239-14.828 1.106-31.939 1.106-49.469 0-17.377 0-35.499 0-53.869 0-37.1 3.697-76.769 0-105.537-4.212-32.71-37.325-60.471-72.557-60.471-33.195 0-55.545 19.985-65.976 41.779-10.68 22.347-4.687 50.272-7.69 82.452-6.479-4.147-16.872-14.684-26.375-24.187-6.229-6.226-25.088-21.801-26.392-29.679-0.502-3.045 1.106-12.595 2.202-18.695 3.287-18.377 11.756-36.502 18.691-47.275 18.988-29.522 52.132-52.972 92.344-56.067 47.193-3.628 80.746 13.988 103.345 37.379 18.493 19.152 32.925 45.582 35.181 79.152 5.093 76.192-3.806 172.663-0.007 258.359zM976.227 818.22c4.4 0 8.803 0 13.203 0-2.949 7.581-10.182 7.178-13.203 0zM931.164 774.246c-10.564-12.213-19.729-19.726-34.075-34.079-6.554-6.557-30.761-27.286-32.99-35.188zM849.807 690.695c-4.311-0.113-9.073-9.24-14.295-12.087 3.837-11.213 2.198-23.559 2.198-35.188 0-162.502 0-328.253 0-489.216 0-25.341 2.328-51.951 0-75.865-3.802-38.956-33.58-68.826-74.752-68.164-37.67 0.618-68.086 30.147-71.462 63.775-3.502 34.813 0 74.417 0 114.33 0 112.012 0 238.008 0 344.098-8.305-5.997-17.316-15.111-27.491-25.279-5.362-5.369-24.818-21.811-26.382-28.587-1.123-4.857 1.092-14.834 1.092-23.084 0-93.716 0-187.129 0-277.047 0-34.587-2.028-68.444 0-101.14 2.065-33.157 17.801-63.98 36.284-82.456 23.194-23.19 58.341-40.243 103.335-36.277 58.3 5.127 106.073 54.371 111.046 112.138 2.075 24.187 0 50.63 0 76.957 0 127.474 0 258.54 0 380.385 0 52.337-3.557 105.045 0 153.911 3.949 54.306 45.397 76.343 106.629 70.356 0 17.589 0 35.188 0 52.777-10.448 0.546-23.194-1.208-31.874 1.099-4.021-3.741-8.264-6.977-12.093-10.994-2.055-2.154-7.875-6.584-4.4-7.704zM128.611 71.752c225.43 225.423 452.649 451.553 677.219 676.113 18.852 18.859 36.212 39.315 54.968 58.269 9.284 9.39 19.279 18.111 28.59 27.488 9.424 9.482 17.937 20.391 29.679 27.484 10.544 15.845 23.753 25.508 38.475 40.673 5.461 5.618 12.005 12.087 19.794 19.791 3.413 3.393 19.75 16.408 17.589 23.084-0.147 0.427-0.232 5.396-8.803 4.4-1.7-0.195-2.792-2.881-3.301-3.301-20.197-17.015-48.486-49.217-70.352-68.154-10.919 11.421-23.504 21.2-32.973 34.079 5.564 3.239 8.779 8.721 13.182 13.186 3.994 4.065 11.561 7.202 10.994 15.401-13.964 11.957-21.559-13.152-32.98-17.592-10.953 5.424-19.831 30.519-35.181 17.592 0.324-9.236 8.625-15.22 14.295-20.893 17.896-17.896 36.052-34.447 52.77-52.767-27.969-27.368-54.705-55.979-83.558-82.452-42.411 42.24-85.839 83.459-126.42 127.529 6.796 9.769 26.959 16.377 20.879 31.884-10.728 1.952-18.2-9.407-24.18-15.398-49.623-49.616-98.731-100.325-148.422-148.415-27.269 28.802-56.327 55.808-83.541 84.654 20.292 17.821 39.349 36.878 57.167 57.17 6.537 4.56 18.080 11.694 12.093 21.989-10.513 2.864-16.080-8.39-21.989-14.298-19.535-19.528-39.325-38.434-58.279-57.17-19.767 18.995-37.591 39.305-58.259 59.375-3.13 3.034-17.401 19.091-23.081 9.892-4.345-7.031 10.523-17.114 16.49-23.088 48.848-48.852 102.141-101.949 146.214-148.419-19.299-20.9-41.878-41.871-62.665-62.662-2.645-2.635-18.087-21.006-20.89-20.883-1.208 0.044-8.936 10.039-13.196 14.288-69.451 69.465-145.975 143.479-209.978 211.084 6.096 9.431 27.942 16.838 20.886 31.884-10.336 2.164-17.722-8.94-24.183-15.398-42.571-42.571-83.398-84.504-126.437-127.539-5.041-5.055-19.319-20.995-21.978-20.89-1.713 0.072-9.905 11.005-13.196 14.295-9.933 9.929-18.429 18.627-27.491 27.484-4.229 4.14-9.629 11.165-16.486 6.591-5.625-6.967 2.277-13.175 6.598-17.585 9.926-10.138 19.275-19.227 28.587-28.587 4.427-4.454 11.595-8.107 12.090-14.292-13.114-12.489-29.228-26.47-41.769-39.581-3.758-3.922-10.595-11.336-5.502-17.582 6.543-3.659 11.592 2.871 15.398 6.591 61.573 60.286 121.013 123.61 182.501 182.497 28.122-27.942 57.255-54.88 83.541-84.657-74.882-73.516-148.675-148.139-223.171-222.065-14.886 11.281-27.914 26.812-40.68 39.571-3.785 3.792-9.458 12.049-16.486 8.806-7.967-6.605 0.73-12.636 4.403-16.5 13.766-14.493 29.737-29.43 41.769-42.875-13.251-12.759-27.832-28.682-40.677-41.783-4.038-4.106-13.182-8.707-6.598-16.49 6.772-3.703 11.281 2.659 15.398 6.605 54.47 52.186 104.728 104.742 158.304 158.304 5.54 5.54 22.047 24.323 25.286 24.19 2.755-0.113 16.62-17.722 19.791-20.893 22.187-22.187 43.274-41.619 62.662-62.662-74.042-75.107-149.586-148.705-224.27-223.174-8.823 8.41-17.777 16.684-26.388 25.296-8.496 8.496-15.636 20.48-28.583 24.183-11.308-12.445 9.998-23.351 17.592-30.792 3.587-5.622 7.219-9.479 13.193-15.384 3.311-3.297 14.513-10.284 14.288-14.298-0.044-0.748-11.226-11.216-13.196-13.182-10.237-10.24-18.504-17.34-27.481-26.385-4.69-4.734-11.134-10.26-7.697-17.589 6.659-4.239 11.093 0.502 15.387 4.393 4.243 3.847 8.622 8.622 12.104 12.093 57.252 57.255 116.043 115.48 172.595 171.506 26.982-28.365 55.716-54.951 82.452-83.555-74.24-74.902-149.528-148.77-224.27-223.167-9.066 9.26-18.101 18.541-27.484 27.481-9.779 6.096-15.906 25.931-30.788 19.794-3.321-7.188 3.843-12.571 7.697-16.5 13.759-14.053 28.413-26.627 40.677-40.673-12.96-13.38-26.761-27.856-39.571-40.677-4.048-4.041-12.687-8.451-8.806-16.486 7.018-5.854 11.418 0.928 15.387 4.4 4.338 3.755 8.806 8.735 12.104 12.087 56.429 57.341 116.48 113.579 171.51 170.407 28.853-26.119 56.334-53.6 82.446-82.452-74.947-74.213-148.408-149.9-224.276-223.174-12.704 12.513-27.412 29.28-40.673 41.772-4.116 3.874-10.127 11.117-16.497 4.393-3.615-6.984 3.983-12.691 7.697-16.483 13.51-13.797 28.607-25.883 39.578-40.68-8.663-9.288-18.845-17.070-26.382-27.488-5.567-3.229-9.492-8.107-13.196-13.186-5.891-1.911-11.855-10.073-6.598-16.5 8.687-4.355 12.285 4.584 16.486 8.796 4.635 4.646 10.080 10.093 14.295 14.298 9.185 9.158 18.814 19.244 28.583 27.481 20.384 17.186 38.434 37.311 57.177 56.071zM491.407 455.431c-7.072 5.482-16.152 16.159-25.293 25.283-1.451 1.451-8.742 6.506-8.786 7.697-0.123 2.816 24.125 25.238 27.484 28.583 63.683 63.693 135.55 133.359 195.683 195.693 12.739-9.991 24.095-21.35 34.082-34.075-72.178-72.223-144.381-144.401-216.583-216.586 2.836-2.918-5.591-1.765-6.588-6.595zM801.437 781.943c9.325-9.335 7.953-8.404-2.205-18.691-22.914-23.224-53.255-52.152-72.554-73.66-12.919 9.438-23.009 21.712-34.082 32.986 26.242 29.085 54.903 55.764 82.452 83.552 6.103-3.86 18.183-15.981 26.388-24.187zM484.816 703.891c63.348 63.345 137.404 136.704 196.782 195.686 28.498-26.842 55.071-55.607 83.555-82.456-73.151-76.001-149.757-148.552-223.167-224.266-25.040 21.408-48.548 47.442-73.673 72.557-2.86 2.86-10.964 9.267-10.984 9.892-0.119 2.748 21.023 22.125 27.488 28.587zM235.254 709.386c-4.25 4.246-14.244 11.988-14.295 13.196-0.092 1.997 15.78 16.876 19.787 20.883 20.463 20.46 46.473 45.742 63.768 62.669 74.841-73.936 149.234-148.326 223.174-223.174-25.525-29.454-55.129-54.808-81.367-83.555-67.649 63.932-141.612 140.524-211.067 209.981zM231.953 524.687c-3.697 3.697-10.991 11.127-10.991 10.994-0.068 1.512 16.312 17.422 19.787 20.89 20.791 20.794 46.199 45.469 63.768 62.662 58.532-58.361 118.088-115.709 174.797-175.903-26.866-27.737-55.306-53.893-81.353-82.452-52.627 50.227-111.193 109.005-166.007 163.809zM220.962 350.986c28.791 25.818 55.020 54.19 82.446 81.35 28.863-26.102 56.347-53.589 82.456-82.452-27.109-27.491-55.060-54.132-81.35-82.449-29.228 26.477-57.074 54.33-83.552 83.552z" />
<glyph unicode="&#xe602;" glyph-name="accessories" d="M512.317 863.683c35.007 0 68.635-8.475 99.949-24.037 10.458 10.080 16.841 23.228 16.841 37.646 0 31.717-30.481 57.361-68.127 57.361-37.618 0-68.116-25.644-68.116-57.361 0-4.953 0.826-9.731 2.232-14.316 5.7 0.454 11.438 0.707 17.22 0.707zM622.51 834.266c34.345-19.074 65.673-46.807 92.692-81.323 18.5 10.257 30.723 27.877 30.723 47.913 0 31.672-30.505 57.317-68.157 57.317-22.764 0-42.889-9.445-55.258-23.907zM778.165 640.993c27.327 7.479 47.101 29.044 47.101 54.484 0 31.679-30.543 57.361-68.198 57.361-12.967 0-25.047-3.11-35.369-8.414 22.245-30.112 41.329-64.966 56.467-103.431zM783.933 625.684l27.228-111.196c35.437 2.034 63.485 26.781 63.485 57.126 0 31.672-30.543 57.351-68.178 57.351-7.909 0-15.473-1.195-22.535-3.28zM820.524 386.075c37.656 0 68.178 25.682 68.178 57.364 0 31.672-30.519 57.361-68.178 57.361-2.553 0-5.065-0.143-7.547-0.372 2.843-23.968 4.342-48.596 4.342-73.725 0-13.636-0.461-27.116-1.311-40.434 1.498-0.082 2.99-0.195 4.516-0.195zM815.52 374.071c-0.14 0-0.273-0.017-0.41-0.017-3.284-39.168-10.182-76.732-20.204-112.005 6.506-1.737 13.428-2.69 20.613-2.69 37.656 0 68.134 25.692 68.134 57.358 0 31.672-30.478 57.354-68.134 57.354zM791.989 252.14c-11.564-37.984-26.774-73.161-45.015-104.605 10.882-6.195 24.006-9.813 38.13-9.813 37.608 0 68.134 25.648 68.134 57.351 0 29.713-26.87 54.159-61.249 57.068zM378.784 819.668c32.887 22.979 69.082 37.724 107.288 42.387 0.13 1.434 0.259 2.867 0.259 4.328 0 31.713-30.536 57.358-68.144 57.358-37.622 0-68.12-25.644-68.12-57.358 0.003-19.275 11.363-36.311 28.716-46.715zM287.775 722.429c22.47 34.99 48.869 64.724 78.203 87.747-12.407 14.196-32.331 23.45-54.852 23.45-37.649 0-68.123-25.696-68.123-57.368-0.003-24.753 18.657-45.797 44.773-53.828zM129.43 448.522c0-31.631 30.488-57.327 68.116-57.327 3.645 0 7.199 0.311 10.691 0.775-0.628 11.462-0.959 23.043-0.959 34.737 0 111.735 29.3 213.664 77.469 290.932-9.557 4.294-20.463 6.745-32.058 6.745-37.612 0-68.093-25.692-68.093-57.364 0-23.968 17.446-44.428 42.213-52.978-4.243 0.666-8.561 1.103-13.039 1.103-37.615 0-68.13-25.699-68.13-57.364 0-23.702 17.104-44.025 41.428-52.794-32.573-4.26-57.638-27.805-57.638-56.463zM227.772 268.96c-9.554 35.345-15.998 72.905-18.838 112.005-0.56 0.010-1.099 0.072-1.659 0.072-37.571 0-68.089-25.682-68.089-57.361s30.515-57.361 68.089-57.361c7.148 0 14.029 0.935 20.497 2.645zM270.769 159.836c-17.323 32.137-31.604 67.806-42.196 106.155-34.232-3.038-60.945-27.412-60.945-57.037 0-31.625 30.539-57.324 68.154-57.324 12.81 0 24.75 3.034 34.987 8.206zM273.882 154.156c-23.183-9.155-39.291-28.931-39.291-51.91 0-31.625 30.515-57.313 68.123-57.313 17.111 0 32.703 5.342 44.67 14.097-27.972 25.808-52.797 58.003-73.503 95.126zM349.972 11.537c0-31.669 30.522-57.358 68.14-57.358 29.402 0 54.354 15.698 63.904 37.646-42.824 6.052-83.040 24.808-118.808 53.579-8.284-9.496-13.237-21.183-13.237-33.867zM526.681-9.82c10.069-21.088 34.546-36 63.194-36 37.618 0 68.137 25.685 68.137 57.358 0 9.233-2.656 17.927-7.26 25.658-37.536-27.443-79.558-44.059-124.071-47.015zM739.553 135.229c-22.473-35.946-49.039-66.519-78.647-90.235 12.483-11.977 30.747-19.582 51.156-19.582 37.608 0 68.154 25.702 68.154 57.364 0 23.398-16.739 43.537-40.663 52.453zM789.61 430.275c0 223.737-123.303 405.76-274.865 405.76s-274.869-182.023-274.869-405.76c0-223.741 123.307-405.763 274.869-405.763s274.865 182.023 274.865 405.763zM514.744 27.924c-149.681 0-271.456 180.494-271.456 402.35 0 221.853 121.774 402.347 271.456 402.347 149.678 0 271.452-180.49 271.452-402.347s-121.774-402.35-271.452-402.35zM463.607 696.592l2.637-2.167-113.193-137.743-2.637 2.167 113.193 137.743zM395.587 358.288l-2.637 2.167 113.187 137.735 2.637-2.167-113.187-137.735zM320.501 390.024l-2.648 2.154 212.335 260.986 2.648-2.154-212.335-260.986z" />
<glyph unicode="&#xe603;" glyph-name="insulation" d="M299.96 323.26c13.145 34.164 60.843-12.308 66.854 11.141-41.994 128.853-145.609-51.292-44.564-77.991 50.671-13.397 113.493 32.505 116.978 83.558 3.567 52.074-36.857 86.702-77.988 111.418-195.673 44.687-202.96-253.986-33.42-267.397 88.747-7.028 165.461 56.986 178.258 128.13 23.381 129.997-74.155 219.057-194.98 211.685-101.427-6.188-187.047-90.593-172.694-217.262 9.489-83.767 73.472-179.384 161.553-194.966 104.895-18.562 194.434 32.311 233.97 83.555 41.342 53.576 66.56 178.326 11.145 272.968-42.964 73.383-127.075 135.195-250.685 122.552-115.852-11.844-232.284-109.449-233.967-261.823-1.823-164.277 106.977-267.039 245.108-284.112 375.016-46.322 375.33 406.982 573.792 562.65 62.338 6.625 100.973-10.452 139.281-27.856-59.279-152.412-128.532-294.844-194.99-440.091-8.943-17.753-30.973 16.305-50.132 22.282-17.507 5.468-45.879 13.059-83.558 5.571-29.17-5.782-46.217-28.931-72.417-55.699-60.078-61.375-141.735-116.801-267.401-116.989-198.646-0.307-348.525 147.579-334.254 356.526 12.646 184.996 202.568 339.173 412.242 267.401 114.627-39.243 223.362-152.098 194.983-339.814-18.333-121.228-140.633-220.86-284.112-217.265-145.777 3.652-318.348 193.823-222.836 384.382 26.75 53.35 91.245 111.012 161.553 122.559 171.124 28.099 326.967-123.051 267.397-295.257-63.693-184.108-387.185-183.702-389.956 50.142-1.72 145.985 178.367 239.439 284.109 133.697 74.667-74.667 48.862-223.29-61.276-245.115-34.557-6.854-62.874-5.335-89.136 5.574-58.464 24.279-90.358 165.652-5.567 200.54 40.837 16.814 117.535-6.11 128.13-44.571 28.737-104.192-95.573-121.412-111.418-50.121zM662.067 351.109c-20.408 86.443-31.717 167.014-89.136 228.403-82.207 87.887-276.101 125.949-401.087 50.138 18.531 36.768 57.716 76.377 94.693 116.985 51.343 56.381 115.081 132.615 211.695 144.841 153.955 19.473 340.606-93.583 328.677-256.259-0.642-8.707-2.915-13.592-5.574-22.279-30.198-99.041-101.086-159.973-139.267-261.83z" />
<glyph unicode="&#xe604;" glyph-name="hydrovanna" d="M981.026 597.958c-150.886-105.649-316.621-196.451-469.688-299.919-155.682 98.959-313.272 196.021-469.688 294.26 149.767 93.566 322.246 194.591 469.688 271.623 161.341-83.876 309.49-180.941 469.688-265.964zM505.679 829.972c-127.898-73.936-252.6-151.067-384.802-220.696 54.596-53.746 127.375-83.494 192.403-124.495 65.693-41.421 128.379-89.774 198.059-124.495 99.915 59.194 201.093 122.999 294.26 181.081 33.072 20.62 69.506 39.154 96.205 67.908-138.499 67.106-257.161 154.054-396.124 220.696zM500.023 796.017c5.656 0 11.315 0 16.978 0 0-50.93 0-101.861 0-152.791 61.665-49.623 147.183-75.397 203.721-130.154-38.301-2.707-68.239 31.58-101.861 50.93-35.755 20.576-73.834 36.584-107.52 56.59-54.504-20.978-106.469-62.082-164.106-90.542-14.496-7.161-35.775-30.406-50.93-11.315 65.318 42.199 135.622 79.415 203.721 118.832-0.003 52.821-0.003 105.636-0.003 158.45zM443.433 739.43c8.752-8.223 11.878-22.074 11.319-39.612-71.956-17.818-121.368-108.36-203.721-79.223 9.281 11.738 29.15 24.962 39.608 5.656 49.394 39.267 123.153 54.166 152.794 113.179zM618.861 682.841c9.953-1.362 12.899-9.738 11.315-22.637-17.623-2.645-20.231 14.23-11.315 22.637zM584.905 654.548c0-3.772 0-7.543 0-11.319-27.59-5.666-10.441 30.116 0 11.319zM698.085 637.57c13.117-1.577 13.008-15.114 5.659-22.634-13.121 1.58-13.012 15.111-5.659 22.634zM635.836 626.251c17.62 2.649 20.227-14.227 11.315-22.637-9.95 1.369-12.899 9.742-11.315 22.637zM715.059 586.643c9.953-1.365 12.899-9.742 11.315-22.637-17.616-2.652-20.224 14.23-11.315 22.637zM913.121 524.394c-1.014-48.080-45.070-102.028-56.586-158.454-115.49-78.793-229.714-158.86-350.853-232.015-111.288 77.339-224.468 152.794-339.535 226.359-14.305 59.252-44.213 102.915-62.246 158.447 55.538-29.003 43.032-86.054 73.568-130.154 33.215-47.981 108.445-77.435 164.106-113.179 58.235-37.393 112.473-75.22 164.106-107.52 118.794 62.293 220.665 141.5 333.872 209.381 22.398 51.169 34.686 112.449 73.568 147.135z" />
<glyph unicode="&#xe605;" d="M807.953 397.196l189.57 384.017-49.944 23.491-67.379-143.258h-216.788l31.788 125.942-49.384-7.223-27.569-118.719h-240.094l-2.591 132.727-56.528-2.43 9.571-130.297h-218.109l-30.962 138.786-54.682-14.551 32.935-131.082v-14.169h3.56l98.635-392.561 43.435-2.939-33 147.927h177.917l10.65-144.988 27.303-2.939-2.888 147.927h172.483l-35.031-150.852h36.693l38.076 150.852h158.246l-69.533-147.831 47.766-1.485 73.711 149.313h2.144v4.342zM870.315 640.427l-48.848-103.851h-189.57l26.214 103.851h212.204zM589.254 536.576h-68.898l69.782 3.809-0.884-3.809zM607.73 616.137v24.289h5.639l-5.639-24.289zM330.151 640.427l7.629-103.851h-199.427l-23.17 103.851h214.968zM166.253 411.525l-23.429 105.025h196.427l7.714-105.025h-180.712zM383.034 411.525l-2.051 105.025h203.619l-24.388-105.025h-177.179zM600.334 411.525l26.508 105.025h185.207l-49.398-105.025h-162.318z" />
<glyph unicode="&#xe606;" d="M610.703 654.599l-302.957-69.321 35.659-132.925 236.704 85.299z" />
<glyph unicode="&#xe607;" d="M339.613 445.092l-38.714 144.305 317.484 72.646-33.645-128.621-245.125-88.33zM314.593 581.154l32.608-121.539 228.284 82.261 27.539 105.277-288.43-66z" />
<glyph unicode="&#xe608;" d="M24.852 802.898h972.67v-28.044h-972.67v28.044z" />
<glyph unicode="&#xe609;" d="M159.986 257.205h572.112v-18.674h-572.112v18.674z" />
<glyph unicode="&#xe60a;" glyph-name="gypsum-board" d="M504.508 403.398c24.255 29.583 26.952-24.303 0 0v0zM584.513 435.405c24.265 29.58 26.962-24.303 0 0v0zM576.512 379.395c24.262 29.58 26.962-24.3 0 0v0zM328.475 387.393c24.262 29.583 26.959-24.3 0 0v0zM701.385 404.893c36.676-5.338-6.431-48.439 0 0v0zM426.721 380.075c24.259 29.583 26.952-24.303 0 0v0zM742.929 427.974c24.259 29.58 26.959-24.3 0 0v0zM798.58 382.078c24.255 29.58 26.952-24.303 0 0v0zM878.947 379.395c24.262 29.58 26.959-24.3 0 0v0zM890.952 443.59c24.259 29.583 26.955-24.3 0 0v0zM1008.428 418.185c0.106 25.9-1.888 66.666-36.386 81.333-0.058 0.102-0.126 0.195-0.188 0.294-0.133 0.218-0.29 0.427-0.444 0.635-0.191 0.259-0.379 0.509-0.597 0.744-0.061 0.065-0.099 0.14-0.16 0.201-58.651 59.696-127.263 114.183-193.621 166.874-22.163 17.599-45.080 35.799-67.103 53.787-3.652 2.987-9.028 2.437-12.008-1.208-2.98-3.649-2.437-9.025 1.208-12.008 22.115-18.063 45.080-36.297 67.287-53.934 62.129-49.336 126.246-100.263 181.89-155.279-59.518-15.524-123.744-10.95-186.003-6.482-57.371 4.12-116.695 8.373-172.377-3.041-40.127-8.223-75.916-22.115-110.524-35.55-55.214-21.432-107.424-41.656-170.295-36.171-35.021 28.16-69.263 59.358-102.397 89.566-38.98 35.54-79.288 72.291-121.091 104.264-3.741 2.86-9.097 2.147-11.96-1.594-2.864-3.744-2.15-9.1 1.594-11.96 41.216-31.522 81.248-68.021 119.958-103.318 33.314-30.375 67.748-61.744 103.168-90.228-1.075-9.295-0.823-18.623-0.556-27.699 0.297-10.158 0.56-19.9-0.956-29.194-55.235 37.717-107.701 81.183-158.484 123.354-36.509 30.321-74.264 61.669-112.828 90.679-3.765 2.833-9.114 2.075-11.95-1.69-2.833-3.768-2.075-9.117 1.69-11.95 38.236-28.761 75.827-59.979 112.183-90.167 53.603-44.513 109.029-90.532 167.991-129.966 0.003-0.003 0.010-0.007 0.014-0.010 0.079-0.055 0.157-0.109 0.239-0.164 0.068-0.048 0.147-0.058 0.215-0.102 0.563-0.355 1.171-0.638 1.816-0.853 0.147-0.051 0.29-0.113 0.437-0.154 0.642-0.177 1.307-0.307 2.004-0.328 95.246-2.97 204.578-5.642 319-5.642 119.272 0 244.074 2.908 364.070 11.411l6.287 0.447 1.423 6.141c1.713 7.386 2.929 14.851 4.106 22.067 2.782 17.046 5.41 33.15 14.046 46.92 2.028 3.202 1.608 7.216-0.696 9.977zM994.679 417.266c-10.462-16.691-13.496-35.27-16.428-53.238-0.795-4.895-1.618-9.902-2.584-14.828-229.028-15.831-474.986-11.428-666.136-5.553 2.202 11.39 1.884 22.914 1.553 34.147-0.239 8.066-0.464 15.807 0.201 23.313 6.414-0.471 12.749-0.775 18.944-0.775 56.682 0 104.796 18.678 155.354 38.304 33.949 13.175 69.055 26.805 107.776 34.737 53.374 10.943 111.507 6.765 167.731 2.737 68.659-4.929 139.67-10.022 206.073 11.165 0.089 0.031 0.167 0.079 0.256 0.113 24.747-10.974 28.013-40.561 28.044-69.12-0.276-0.317-0.553-0.635-0.785-1.004zM504.508 403.398c26.952-24.303 24.255 29.583 0 0v0zM584.513 435.405c26.962-24.303 24.265 29.58 0 0v0zM576.512 379.395c26.962-24.3 24.262 29.58 0 0v0zM328.475 387.393c26.959-24.3 24.262 29.583 0 0v0zM701.385 404.893c-6.431-48.439 36.676-5.338 0 0v0zM426.721 380.075c26.952-24.303 24.259 29.583 0 0v0zM742.929 427.974c26.959-24.3 24.259 29.58 0 0v0zM798.58 382.078c26.952-24.303 24.255 29.58 0 0v0zM878.947 379.395c26.959-24.3 24.262 29.58 0 0v0zM890.952 443.59c26.955-24.3 24.259 29.583 0 0v0zM279.965 538.194c1.164-0.973 2.58-1.444 3.987-1.444 1.785 0 3.557 0.765 4.789 2.239 2.205 2.642 1.847 6.571-0.795 8.776l-39.434 32.881c-2.645 2.205-6.574 1.85-8.776-0.795-2.205-2.642-1.847-6.571 0.795-8.776l39.434-32.881zM353.816 478.188c1.164-0.973 2.577-1.444 3.983-1.444 1.785 0 3.557 0.765 4.789 2.243 2.205 2.642 1.847 6.571-0.795 8.772l-39.438 32.877c-2.642 2.205-6.574 1.85-8.772-0.795-2.205-2.642-1.847-6.571 0.795-8.772l39.438-32.881zM199.96 602.204c1.164-0.973 2.577-1.444 3.983-1.444 1.785 0 3.557 0.765 4.789 2.243 2.205 2.642 1.847 6.571-0.795 8.772l-39.441 32.881c-2.645 2.205-6.574 1.85-8.772-0.795-2.205-2.642-1.847-6.571 0.795-8.772l39.441-32.884zM728.030 586.202c1.167-0.973 2.58-1.444 3.987-1.444 1.782 0 3.557 0.765 4.785 2.239 2.205 2.642 1.85 6.571-0.792 8.776l-39.434 32.881c-2.642 2.202-6.574 1.843-8.772-0.795-2.205-2.642-1.85-6.571 0.792-8.776l39.434-32.881zM801.877 526.196c1.167-0.973 2.58-1.444 3.987-1.444 1.782 0 3.557 0.765 4.785 2.239 2.205 2.642 1.85 6.571-0.792 8.776l-39.438 32.881c-2.642 2.202-6.571 1.847-8.772-0.795-2.205-2.642-1.85-6.571 0.792-8.776l39.438-32.881zM648.018 650.209c1.167-0.969 2.58-1.444 3.987-1.444 1.782 0 3.557 0.765 4.785 2.239 2.205 2.642 1.85 6.571-0.792 8.776l-39.434 32.881c-2.642 2.198-6.571 1.847-8.772-0.795-2.205-2.642-1.85-6.571 0.792-8.776l39.434-32.881z" />
<glyph unicode="&#xe60b;" glyph-name="alucabond" d="M579.174 482.253c59.914 9.786 114.596 25.586 167.482 40.864 51.302 14.821 104.349 30.15 161.649 39.735l9.981 1.669v394.772l-14.821-3.666c-83.77-20.733-167.27-43.414-248.026-65.352-27.085-7.356-54.159-14.715-81.299-22.013l-7.008-1.884c-3.133 2.079-6.219 4.55-9.26 6.997-7.547 6.086-15.353 12.377-24.207 12.377-4.622 0-9.066-1.724-13.227-5.123l-2.502-2.048 0.928-3.099c1.215-4.072 2.335-8.264 3.369-12.534-1.635 1.246-3.28 2.567-4.908 3.874-8.107 6.533-17.299 13.937-28.662 13.937-6.294 0-12.257-2.263-17.715-6.724l-6.175-5.045 2.29-7.639c1.427-4.762 2.758-9.923 4.062-15.807-64.116-16.538-128.375-33.959-190.631-50.835-24.87-6.741-49.739-13.483-74.65-20.186l-7.393 1.28c-5.14 0.891-11.138 5.724-16.937 10.4-8.11 6.54-17.306 13.954-28.672 13.954-6.294 0-12.254-2.263-17.712-6.724l-6.175-5.045 2.29-7.639c17.766-59.225 15.37-141.387 13.056-220.846-1.365-46.831-2.775-95.256-0.102-139.131l0.451-7.407 6.837-2.881c3.584-1.505 6.711-4.072 10.336-7.042 7.632-6.26 17.132-14.046 33.987-14.046h0.085v-3.447l13.872 2.266c59.911 9.786 114.596 25.586 167.475 40.868 45.841 13.244 93.102 26.86 143.517 36.454 1.393-5.205 2.693-10.516 3.82-16.012-80.763-20.132-161.174-41.964-239.029-63.109-26.549-7.212-53.105-14.428-79.708-21.583l-7.39 1.277c-5.14 0.887-11.138 5.728-16.937 10.4-8.11 6.54-17.306 13.954-28.669 13.954-6.294 0-12.257-2.266-17.715-6.731l-6.175-5.048 2.29-7.632c17.766-59.221 15.37-141.384 13.056-220.839-1.365-46.831-2.775-95.252-0.102-139.134l0.451-7.407 6.84-2.881c3.584-1.505 6.711-4.069 10.332-7.042 7.629-6.257 17.125-14.042 33.973-14.042h0.099v-3.454l13.872 2.266c59.911 9.789 114.592 25.586 167.472 40.868 51.309 14.828 104.366 30.153 161.669 39.745l9.981 1.669v36.427c4.509-3.645 9.588-7.325 16.408-9.363v-10.865l13.872 2.266c59.901 9.786 114.572 25.583 167.455 40.861 51.313 14.831 104.373 30.16 161.686 39.745l9.974 1.669v394.772l-14.814-3.666c-83.773-20.733-167.26-43.414-247.999-65.348-27.095-7.359-54.183-14.718-81.329-22.019l-7.004-1.884c-3.133 2.079-6.219 4.55-9.26 7.001-2.939 2.369-5.922 4.758-8.987 6.81v23.002c4.506-3.652 9.588-7.325 16.408-9.373v-10.848l13.879 2.263zM184.477 416.328c-2.434 1.447-4.765 3.359-7.499 5.601-2.772 2.273-5.772 4.734-9.298 6.96-2.092 41.073-0.771 86.409 0.509 130.328 2.205 75.691 4.482 153.781-10.411 214.961 2.823-1.789 6.072-4.413 8.745-6.567 5.345-4.311 11.182-9.018 17.954-12.172v-339.111zM184.477 6.625c-2.434 1.451-4.765 3.355-7.496 5.601-2.772 2.273-5.772 4.741-9.298 6.96-2.092 41.073-0.771 86.412 0.509 130.335 2.205 75.687 4.482 153.781-10.414 214.961 2.823-1.789 6.076-4.413 8.748-6.567 5.345-4.314 11.182-9.018 17.951-12.169v-339.121zM589.186 847.572c24.204 6.523 48.364 13.083 72.52 19.647 75.851 20.606 154.132 41.871 232.687 61.529v-344.061c-54.801-9.847-105.37-24.46-154.375-38.615-48.060-13.885-97.628-28.204-150.832-37.847v339.347zM370.62 452.045c-48.056-13.882-97.621-28.204-150.825-37.844v339.337c22.337 6.018 44.646 12.066 66.956 18.115 65.744 17.821 133.724 36.253 201.332 53.586l10.875 2.785-2.106 11.025c-1.106 5.789-2.205 10.998-3.342 15.797 2.778-1.751 6.011-4.355 8.837-6.629 5.151-4.147 10.984-8.847 17.65-12.015l3.871-1.836 1.133 0.283v-343.989c-54.811-9.847-105.383-24.46-154.382-38.615zM525.001 80.968c-54.811-9.854-105.387-24.46-154.382-38.618-48.056-13.882-97.618-28.208-150.822-37.847v339.347c24.037 6.475 48.032 13.001 72.028 19.517 76.015 20.651 154.457 41.96 233.175 61.662v-344.061zM589.186 444.587c24.214 6.526 48.381 13.090 72.547 19.654 75.844 20.603 154.112 41.868 232.66 61.522v-344.064c-54.815-9.847-105.393-24.46-154.399-38.618-48.053-13.879-97.608-28.198-150.808-37.84v339.347zM565.292 453.171v-355.052c-4.475 1.901-8.090 4.823-12.001 8.035-1.434 1.174-2.898 2.348-4.407 3.492v345.928l-14.817-3.669c-0.038-0.010-0.072-0.017-0.109-0.027-1.082 5.257-2.294 10.387-3.618 15.398 2.86 0.509 5.683 1.068 8.567 1.55l4.052 0.676c2.84-1.85 5.792-4.209 8.83-6.656 4.151-3.342 8.632-6.929 13.503-9.673zM553.301 509.126c-1.434 1.171-2.898 2.348-4.407 3.499v352.686l-14.851-3.714c-0.485-0.123-0.963-0.246-1.444-0.369-1.062 4.632-2.188 9.196-3.447 13.626 1.509 0.802 3.007 1.195 4.512 1.195 5.434 0 11.592-4.97 18.125-10.23 4.151-3.345 8.629-6.926 13.503-9.673v-355.052c-4.465 1.901-8.090 4.826-11.991 8.032z" />
<glyph unicode="&#xe60c;" glyph-name="laminat" d="M1003.175 537.614c-0.085 0.133-0.201 0.249-0.294 0.379-0.212 0.287-0.444 0.55-0.676 0.809-0.143 0.157-0.249 0.331-0.403 0.481-0.007 0.003-0.010 0.010-0.017 0.014-0.014 0.010-0.027 0.024-0.041 0.034-0.133 0.13-0.28 0.242-0.413 0.372-0.031 0.024-0.061 0.055-0.089 0.079-17.278 16.609-39.11 26.453-60.249 35.956-14.985 6.735-29.29 13.21-41.731 21.746 4.048 2.365 8.448 4.396 12.995 6.475 5.687 2.601 11.571 5.291 17.295 8.881l3.239 2.034 1.113 3.659c2.884 9.479 8.352 33.287-3.13 49.62l-1.741 2.478-3.86 1.553c-29 20.569-61.686 36.065-93.321 51.040-20.855 9.871-42.424 20.077-62.464 31.556l-2.895 1.655-3.314-0.362c-16.749-1.836-30.962-9.738-44.711-17.377-11.558-6.424-22.538-12.469-34.249-14.609-36.058 22.685-75.827 41.581-114.353 59.839-13.414 6.356-27.279 12.926-40.639 19.5-0.174 0.085-0.355 0.123-0.526 0.198-0.358 0.15-0.717 0.294-1.085 0.406-0.29 0.085-0.58 0.147-0.874 0.208-0.355 0.072-0.71 0.133-1.072 0.167-0.3 0.027-0.597 0.034-0.898 0.038-0.362 0.003-0.72-0.007-1.082-0.044-0.304-0.031-0.601-0.082-0.898-0.14-0.348-0.068-0.689-0.14-1.031-0.242-0.328-0.099-0.642-0.225-0.952-0.355-0.205-0.085-0.413-0.13-0.614-0.229-36.011-17.681-72.957-35.577-108.681-52.883-127.84-61.928-260.035-125.959-383.676-196.594-0.072-0.041-0.13-0.099-0.201-0.143-0.276-0.164-0.529-0.358-0.788-0.553-0.195-0.143-0.399-0.27-0.584-0.427-0.096-0.082-0.184-0.171-0.28-0.259-0.208-0.195-0.396-0.416-0.591-0.628-0.171-0.188-0.355-0.355-0.515-0.556-0.092-0.119-0.174-0.242-0.263-0.365-0.048-0.068-0.109-0.116-0.154-0.184-8.581-12.564-6.844-27.74-5.451-39.936 0.215-1.881 0.427-3.724 0.591-5.509l0.406-4.366 3.437-2.72c0.751-0.594 1.526-1.256 2.297-1.918 1.307-1.116 2.618-2.222 3.854-3.144l1.014-0.758 1.167-0.488c20.985-8.748 41.677-19.692 61.689-30.269 29.863-15.787 60.744-32.102 94.252-42.206 0.031-0.010 0.058-0.020 0.089-0.027 0.092-0.031 0.181-0.065 0.273-0.089 0.123-0.038 0.242-0.051 0.365-0.079 0.085-0.024 0.16-0.068 0.249-0.085 0.092-0.020 0.184-0.014 0.276-0.031 0.249-0.055 0.498-0.113 0.748-0.143 0.024-0.003 0.044-0.014 0.068-0.017 2-0.246 3.959-0.358 5.888-0.358 15.698 0 29.078 7.612 42.063 15.002 8.796 5.004 17.155 9.735 25.641 11.769 7.748-3.649 15.524-7.24 23.31-10.8 27.61-12.626 53.886-24.655 78.121-40.332-1.799-0.908-3.758-1.775-5.823-2.679-8.223-3.608-18.275-8.12-24.207-18.872l-4.816-4.314-0.785-2.956c-5.905-22.19-3.335-38.813 7.636-49.401l1.386-1.338 1.775-0.744c20.927-8.752 41.52-19.709 61.437-30.307 31.102-16.551 63.266-33.652 98.502-43.54 0.017-0.007 0.034-0.010 0.055-0.017 0.048-0.014 0.092-0.031 0.143-0.044 0.15-0.044 0.3-0.061 0.451-0.092 0.154-0.038 0.307-0.072 0.464-0.096 0.14-0.027 0.276-0.068 0.416-0.085 0.481-0.068 0.956-0.102 1.43-0.102 0.628 0 1.242 0.072 1.85 0.184 0.061 0.010 0.119 0.014 0.181 0.024 0.15 0.034 0.287 0.092 0.433 0.13 0.41 0.102 0.809 0.222 1.201 0.372 0.113 0.044 0.232 0.065 0.341 0.109 99.352 41.875 197.035 91.843 291.495 140.165 64.536 33.010 131.267 67.147 197.833 98.338l0.949 0.447 0.84 0.628c1.222 0.911 2.512 2.004 3.799 3.106 0.782 0.666 1.563 1.338 2.324 1.939l3.447 2.72 0.406 4.372c0.167 1.785 0.375 3.632 0.594 5.513 1.379 12.151 3.106 27.276-5.393 39.82zM976.101 534.071c-57.993-29.198-116.647-58.392-173.52-86.699-98.297-48.92-199.881-99.485-299.616-150.852-29.358 15.988-59.273 30.788-88.269 45.080-18.121 8.936-36.741 18.135-55.2 27.607 2.157 1.215 4.717 2.372 7.711 3.686 6.81 2.987 14.367 6.349 20.101 13.080 15.725 3.014 31.177 10.779 42.486 21.412 69.728 30 138.131 65.051 204.298 98.966 66.717 34.198 135.639 69.475 205.81 99.54 10.742-10.677 25.812-16.285 38.345-18.152 16.265-13.486 35.594-22.252 54.351-30.682 15.695-7.052 30.713-13.824 43.503-22.985zM915.35 628.241c-3.656-2.021-7.547-3.799-11.609-5.656-8.318-3.802-16.869-7.745-24.586-14.227-8.076 1.488-15.551 4.71-21.238 9.018 9.052 6.366 19.36 11.087 30.126 16.002 9.609 4.39 19.459 8.899 28.839 14.8 0.809-5.533 0.317-12.503-1.533-19.937zM728.422 720.794c11.482 6.383 22.385 12.442 33.86 14.473 19.825-11.155 40.643-21.009 60.809-30.553 26.692-12.633 54.146-25.661 78.913-41.598-7.069-4.069-14.633-7.526-22.47-11.107-14.483-6.615-29.416-13.493-42.284-24.941-72.701-30.839-143.766-67.253-212.504-102.485-64.802-33.215-131.765-67.499-199.704-96.911-29.133 18.589-60.952 33.884-91.808 48.66-14.264 6.83-28.873 13.841-43.196 21.163 59.474 34.727 123.020 65.478 184.689 95.246 70.649 34.103 143.66 69.373 210.958 110.848 15.961 2.4 29.577 9.888 42.738 17.207zM420.444 732.116c34.277 16.602 69.652 33.744 104.291 50.732 12.073-5.895 24.385-11.752 36.366-17.428 34.065-16.145 69.144-32.778 101.297-51.941-62.945-37.697-130.768-70.533-196.57-102.298-67.311-32.492-136.899-66.092-201.414-105.011-1.010-0.416-2.106-0.908-3.427-1.635-16.483-2.765-30.215-10.189-43.482-17.428-8.192-4.471-16.015-8.649-24.238-11.721-31.471 17.101-63.584 32.976-94.7 48.316-14.435 7.117-29.228 14.415-43.991 21.849 118.265 66.608 244.036 127.553 365.868 186.566zM40.933 510.372c-0.454 0.369-0.918 0.761-1.382 1.157-0.065 0.563-0.126 1.13-0.195 1.7-0.689 6.028-1.386 12.179-0.806 17.48 17.097-8.673 34.26-17.149 50.958-25.382 30.491-15.032 61.938-30.587 92.631-47.22 0.010-2.004 0.051-3.987 0.089-5.939 0.068-3.198 0.109-6.304 0.038-9.332-27.46 9.636-53.726 23.518-79.23 37.004-20.016 10.585-40.704 21.521-62.102 30.532zM227.604 451.492c-8.557-4.867-16.777-9.482-24.911-11.37 0.181 4.222 0.099 8.383 0.014 12.469-0.031 1.512-0.051 2.97-0.068 4.424 8.748 3.475 16.831 7.83 24.675 12.111 9.090 4.96 17.831 9.687 27.057 12.728v-17.64c-9.591-2.98-18.295-7.898-26.767-12.721zM274.848 462.718v19.593c16.428-8.554 33.205-16.63 49.545-24.453 27.587-13.213 55.975-26.825 82.053-42.687-6.871-4.284-14.732-7.462-22.583-9.025-27.836 19.255-58.72 33.451-88.665 47.145-6.796 3.106-13.578 6.257-20.35 9.428zM349.938 332.046c-3.338 4.233-4.215 11.087-2.666 20.419 19.545-10.066 39.233-19.801 58.368-29.235 28.628-14.114 58.153-28.72 86.975-44.397v-14.961c-28.095 9.479-54.19 23.347-81.596 37.926-19.685 10.476-40.018 21.292-61.082 30.249zM988.208 500.118c-0.065-0.57-0.13-1.137-0.195-1.703-0.515-0.444-1.034-0.881-1.536-1.287-66.546-31.212-133.079-65.246-197.441-98.171-89.61-45.841-182.142-93.082-275.941-133.393v13.141c99.369 51.169 200.619 101.571 298.605 150.337 58.102 28.914 118.064 58.761 177.309 88.603 0.591-5.315-0.109-11.486-0.802-17.527z" />
<glyph unicode="&#xe60d;" glyph-name="cabin" d="M875.817 519.182c-0.215 83.326-0.44 169.489-0.020 253.402l0.014 2.533-1.369 2.127c-14.578 22.671-35.639 38.137-56.009 53.094l-2.205 1.621c-48.749 35.84-99.584 62.338-151.801 79.241v2.748h-8.854c-20.101 6.069-40.393 10.766-60.849 13.981-36.13 5.676-78.612 8.209-137.748 8.209-25.709 0-52.002-0.471-77.431-0.925-25.498-0.457-49.579-0.887-73.202-0.887-8.735 0-19.145 0.696-30.17 1.434-12.343 0.826-25.102 1.679-37.164 1.679-13.541 0-24.108-1.123-32.314-3.43-24.047-6.765-24.177-26.969-24.344-52.548l-0.027-3.854c-1.495-181.972-0.99-360.735-0.498-533.613 0.246-86.781 0.498-176.514 0.498-265.81 0-7.335-0.164-15.964-0.338-25.098-0.963-50.883-0.847-85.060 9.165-96.048 7.458-8.182 20.61-9.315 33.707-9.315 2.966 0 5.977 0.061 8.953 0.119 2.789 0.058 5.543 0.113 8.189 0.113 29.764 0 60.945-0.502 91.098-0.986 30.532-0.495 62.102-1.004 92.624-1.004 0.003 0 0 0 0.003 0 68.195 0 117.224 2.58 158.949 8.363 23.368 3.239 46.817 8.421 70.062 15.353h9.687v3.038c63.928 20.473 126.013 54.292 180.217 98.871l1.184 0.969c10.056 8.253 22.572 18.521 27.884 34.376l0.42 1.242 0.024 1.318c2.383 134.274 2.017 274.289 1.669 409.689zM806.117 818.207l2.208-1.625c18.452-13.551 37.513-27.546 50.391-46.5-0.399-83.166-0.181-168.445 0.034-250.945 0.345-132.512 0.683-269.414-1.533-400.961h-192.792v775.025c48.633-16.401 96.072-41.455 141.691-74.994zM199.386 877.462l0.027 3.884c0.177 27.122 1.222 33.222 11.899 36.226 6.68 1.881 15.739 2.796 27.692 2.796 11.489 0 23.962-0.836 36.024-1.642 11.315-0.758 22.006-1.471 31.307-1.471 23.774 0 47.93 0.43 73.506 0.891 25.351 0.454 51.565 0.922 77.124 0.922 58.214 0 99.881-2.468 135.103-8.001 18.565-2.915 37.004-7.069 55.282-12.438v-780.445h-322.608v243.913h-23.893v-252.447h1.167l-101.284-131.311c-2.761 17.725-2.089 53.258-1.69 74.424 0.174 9.216 0.341 17.923 0.341 25.419 0 89.32-0.256 179.067-0.498 265.858-0.492 172.831-1 351.549 0.498 533.422zM582.328-28.764c-40.922-5.673-89.225-8.202-156.611-8.202-30.382 0-61.884 0.509-92.348 1-30.222 0.488-61.474 0.99-91.375 0.99-2.758 0-5.629-0.058-8.533-0.116-2.86-0.058-5.758-0.116-8.608-0.116-5.035 0-9.158 0.246-12.469 0.707l104.608 135.615h330.363v-115.835c-21.593-6.308-43.349-11.039-65.027-14.042zM834.997 85.753l-1.198-0.983c-51.087-42.015-109.336-74.206-169.376-94.17v110.513h186.754c-4.628-5.84-10.622-10.8-16.179-15.36zM724.657 344.19c15.503 0 28.116 12.609 28.116 28.109 0 15.503-12.612 28.112-28.116 28.112-15.5 0-28.109-12.609-28.109-28.112-0.003-15.5 12.609-28.109 28.109-28.109zM724.657 390.175c9.858 0 17.876-8.018 17.876-17.872s-8.021-17.869-17.876-17.869c-9.854 0-17.869 8.018-17.869 17.869-0.003 9.854 8.015 17.872 17.869 17.872zM300.851 530.326h23.893v-127.594h-23.893v127.594zM513.76 437.675l-79.986-97.277-1.318 1.084 79.986 97.277 1.318-1.084zM463.793 200.237l-1.32 1.087 80.055 97.235 1.32-1.087-80.055-97.235zM410.654 222.752l-1.322 1.079 150.281 184.126 1.322-1.079-150.281-184.126zM307.934 560.411c7.503-1.7 16.183-0.802 22.658 0 2.724 55.989-3.587 136.462 0 194.236 2.389 38.427 31.389 68.27 71.223 64.748 30.693-2.714 54.743-27.43 58.272-62.59 7.666 0.608 17.828-1.28 23.736 1.082-4 47.398-32.567 75.288-72.298 84.169-29.522 6.601-58.597-6.007-74.458-19.422-15.322-12.957-27.996-35.519-30.211-58.272-2.901-29.693 0-66.301 0-102.513 0-34.659-0.887-69.782 1.079-101.437zM481.666 607.894c1.816 9.131-7.301 13.015-8.632 21.579-3.84-1.444-12.401-16.739-10.793-22.661 2.55-9.363 17.473-8.759 19.425 1.082zM422.318 567.965c1.563 8.724-7.707 13.711-9.711 21.583-3.478-8.571-12.974-13.472-9.711-23.743 2.99-9.411 17.749-7.168 19.422 2.161zM537.781 561.493c8.68 7.209-2.068 19.514-5.396 26.976-6.284-3.806-15.66-20.306-7.554-26.976 2.318-1.911 9.12-3.181 12.95 0zM449.956 738.461c14.527 0 29.054 0 43.581 0 0 5.038 0 10.073 0 15.107-14.387 0-28.774 0-43.162 0-1.638-2.437-1.154-6.994-1.017-11.206l-84.681-68.471c-0.867 0-1.737 0-2.604 0 0-4.676 0-9.353 0-14.029 68.939-2.516 142.667-0.362 213.446-1.079 1.239 2.284 1.778 8.793 0.901 12.728l0.068 0.079-0.106 0.089c-0.215 0.898-0.481 1.696-0.86 2.212-0.594 0-1.191 0-1.782 0l-78.933 66.072-2.191-2.615 75.81-63.457c-66.106 0-132.205 0-198.311 0l79.841 64.57z" />
<glyph unicode="&#xe60e;" glyph-name="hidro-cabin" d="M257.488 901.478c169.639 0 339.285 0 508.925 0l-0.625 2.277 1.86 1.444c-6.106 5.069-12.892 9.452-19.859 13.653-131.4 0-277.937 0-410.856 0-34.154 0-68.195 5.106-80.681-13.653l1.857-1.444-0.621-2.277zM822.917 889.068c-2.7 0-5.396 0-8.096 0v0c-201.926 0-403.825 0-605.744 0-1.451-0.212-1.345-1.966-1.236-3.727 0-305.773 0-611.526 0-917.292 2.7 0 5.4 0 8.096 0v-0.003c202.322 0 404.654 0 606.979 0-0.154 305.882-0.143 619.431 0 921.023zM656.585 505.511c0.379 0.020 0.748 0.031 1.123 0.048 4.891-0.321 9.066-1.359 11.878-3.765 4.024-18.906 4.024-53.094 0-72.001-3.379-2.021-7.482-3.311-12.438-3.755-0.195 0.014-0.369 0.017-0.567 0.034 0.003 26.481 0.003 52.954 0.003 79.439zM374.17 475.72c0-17.5 0.963-37.147-1.242-49.647-8.045-0.7-17.043-0.447-21.101 6.199-4.325 7.083-3.355 63.59 0 68.273 4.768 6.656 14.36 2.7 20.231 6.676v-0.222h2.819c-2.676-7.253-0.707-19.804-0.707-31.28zM381.614 507.003h0.679v372.681l7.417-0.553c30.775 1.065 62.283 1.396 94.082 1.44 41.503-0.007 83.432-0.433 124.856-0.358 10.421 0.003 20.797 0.048 31.143 0.123 0-301.206 0-602.388 0-903.601-83.357 0-169.585 0.225-252.948 0.225zM375.405 62.379c-2.891-26.064-0.42-57.508-1.239-85.637-8.274 0.007-16.643 0.010-25.064 0.007-30.597 0.003-62.034-0.048-91.836-0.051-11.192 0-22.132 0.010-32.645 0.034 0 301.22 0 602.423 0 903.646 49.145 0 98.29 0 147.432 0v-367.353c-14.544 1.574-23.334-2.604-28.921-9.994 2.741-21.381-10.527-68.516 4.973-80.684 6.953-5.465 14.65-2.034 26.064-4.963 0.594-25.562-0.788-59.969 0-85.647zM382.266-23.265c-0.215 0-0.433 0-0.649 0zM806.12-23.265c-49.838 0-99.686 0-149.535 0 0 146.473 0 292.939 0 439.412 0.942 1.294 2.062 2.041 3.273 2.458 1.676-0.195 3.311-0.311 4.765 0.024 0.328 0.072 0.604 0.188 0.918 0.27 2.499-0.283 5.028-0.765 7.182-0.27 17.367 3.987 16.142 20.774 16.142 45.92 0 13.094 2.014 32.788-3.731 40.963-6.502 9.26-17.985 6.178-28.546 8.69 0 122.040 0 244.064 0 366.104 6.212-0.068 12.435-0.106 18.671-0.102 25.672-0.096 51.483 0.362 76.588 0.406 18.688-0.048 36.922-0.382 54.275-1.475-0.003-295.83-0.003-602.429-0.003-902.4zM530.562 835.69c-0.096 13.1-10.615 20.152-23.583 17.381-11.216-2.4-14.223-9.018-14.892-14.899-3.092-27.081 38.68-28.549 38.475-2.481zM506.979 844.38c19.026 8.305 17.865-21.548 2.481-19.862-6.694 0.734-13.872 14.889-2.481 19.862zM574.010 731.423c5.868 1.778 6.004 9.581 7.444 14.892 4.96 18.241 11.339 39.212 12.421 55.856-1.246 0-2.488 0-3.721 0-0.075-1.58-1.594-1.717-1.246-3.721-2.932-10.004-6.98-22.139-9.933-33.509-3.154-12.158-7.823-25.129-4.966-33.519zM440.955 674.338c8.219 25.276-25.641 24.924-23.477 5.513 1.161-10.4 14.643-13.131 23.477-5.513zM580.27 676.123c7.711-10.848 27.569-7.537 23.525 12.817-7.936 9.885-28.228 5.792-23.525-12.817zM427.087 651.827c-6.898-2.929-7.332-7.264-7.301-10.861 0.188-24.986 27.235-8.417 19.005 7.24-0.775 1.471-4.161 6.83-11.704 3.622zM600.767 631.651c9.059 25.17-19.313 27.491-19.159 9.168 0.075-9.684 9.653-16.060 19.159-9.168zM419.29 590.991c4.273-4.052 13.585-4.919 19.705-1.867 15.712 19.777-24.569 33.823-21.497 5.577 1.399-0.403 2.082-1.546 1.792-3.71zM580.287 594.831c5.98-18.299 31.348-2.14 23.194 10.899-2.212 3.512-6.694 8.107-16.060 3.628-6.229-2.99-9.482-7.339-7.134-14.527zM442.586 247.654c-0.591 9.001-8.745 13.728-17.838 9.199-25.173-12.51 19.692-37.495 17.838-9.199zM580.359 242.22c1.792-5.594 6.697-8.093 17.882-7.434 24.033 23.733-26.549 34.512-17.882 7.434zM417.539 202.37c1-7.728 6.352-17.118 21.357-9.943 16.927 29.092-25.487 41.54-21.357 9.943zM580.27 199.342c7.182-10.431 29.17-6.263 23.395 12.916-7.895 9.964-28.078 5.84-23.395-12.916zM424.748 173.687c-25.231-12.452 19.681-37.547 17.828-9.189-0.591 9.045-8.636 13.722-17.828 9.189zM583.946 160.444c1.232-3.744 4.642-5.42 12.407-4.963 16.684 15.869-18.429 23.078-12.407 4.963zM246.852 653.691h104.919v-3.413h-104.919v3.413zM235.527 628.357h125.495v-3.413h-125.495v3.413zM679.366 653.691h104.912v-3.413h-104.912v3.413zM668.027 628.357h125.512v-3.413h-125.512v3.413zM580.475 561.114c0 0.003-0.003 0.007-0.003 0.014-4.256 15.019-10.994 30.843-16.439 44.786-0.010 0.020-0.017 0.041-0.027 0.065-0.836 2.144-1.642 4.246-2.403 6.291-1.28 3.441-2.758 14.889-6.223 22.217 1.239-0.014 2.488 0.017 3.734 0.123 0.171 5.079 2.045 35.693 1.693 52.135 0.266 0 0.529 0 0.795 0-0.713 2.178 1.498 7.287-1.246 7.448l0.181 2.331c1.454 3.505 2.021 7.895 1.068 13.804-3.574 0.143-8.124-0.676-9.926 1.236 3.11 8.052-0.154 22.497 6.199 27.31 4.68 0.956 5.932-1.509 9.933-1.236 4.925 21.965 11.899 41.882 16.142 64.539-17.428 1.328-38.182-5.185-40.967-16.131-5.035-19.756-11.24-51.197-12.418-75.718-0.584 0.133-1.273 0.154-2 0.143-0.215-0.003-0.427-0.003-0.649-0.014-0.515-0.024-1.044-0.061-1.584-0.109-0.997-0.085-1.99-0.167-2.922-0.191-0.055 0-0.109-0.003-0.167-0.003-0.782-0.014-1.512 0.027-2.13 0.184-0.003 0-0.003 0-0.003 0v73.684h-19.552v-73.701c-13.503 0-27.003 0-40.503 0 0-7.864 0-15.718 0-23.583 13.496 0 26.999 0 40.503 0v-248.719h19.552v248.719c3.151 0 6.308 0 9.458 0-0.386-7.004 2.208-11.042 1.242-18.62-0.519-3.884 3.888-22.368 6.199-26.071 2.099-3.352 5.588-5.424 9.667-6.543 0.833-2.946 1.761-6.045 2.744-9.24-0.403-0.106-0.795-0.198-1.236-0.355 5.755-21.965 15.138-40.305 21.111-62.058 12.554-46.52 50.203-124.16 54.61-189.921 2.567-38.342-7.977-67.529-33.516-80.684-15.572-8.015-39.987-5.205-52.128 4.973-16.333 13.677-23.641 40.875-23.579 71.994 0.993 4.792 7.462 4.12 9.926 7.444 2.481 5.704 5.076 8.885 4.963 13.657-0.495 21.92-40.393 25.068-38.475-2.485 0.727-10.564 7.926-12.138 14.892-18.616-0.317-43.267 15.862-84.661 52.128-90.621 21.224-3.482 38.438 5.83 50.162 16.852-0.662-0.928-1.103-1.55-0.505-0.713 0.201 0.28 0.345 0.485 0.515 0.724 5.001 4.7 9.021 9.711 11.895 14.176 25.139 39.038 7.834 101.827-4.963 146.466-9.397 32.758-27.716 77.223-35.7 104.001l-0.051 0.017zM282.307 253.771c-25.177-12.51 19.688-37.492 17.835-9.196-0.591 8.998-8.742 13.728-17.835 9.196zM300.134 316.86c-0.591 9.045-8.636 13.722-17.828 9.192-25.231-12.459 19.681-37.553 17.828-9.192zM725.327 253.771c-25.177-12.51 19.688-37.492 17.835-9.196-0.591 8.998-8.742 13.728-17.835 9.196zM743.154 316.86c-0.591 9.045-8.636 13.722-17.828 9.192-25.235-12.459 19.681-37.553 17.828-9.192zM300.141 827.491c-0.591 9.001-8.745 13.732-17.835 9.199-25.177-12.51 19.688-37.492 17.835-9.199zM275.098 782.21c1-7.728 6.352-17.114 21.357-9.943 16.927 29.092-25.487 41.54-21.357 9.943zM300.134 744.332c-0.591 9.049-8.636 13.725-17.828 9.192-25.231-12.455 19.681-37.547 17.828-9.192zM743.161 827.491c-0.591 9.001-8.742 13.732-17.835 9.199-25.177-12.51 19.688-37.492 17.835-9.199zM718.114 782.21c1.004-7.728 6.352-17.114 21.361-9.943 16.927 29.092-25.487 41.54-21.361 9.943zM743.154 744.332c-0.591 9.049-8.636 13.725-17.828 9.192-25.235-12.455 19.681-37.547 17.828-9.192z" />
<glyph unicode="&#xe60f;" glyph-name="pump" d="M910.817 576.137v-86.449h-85.169c-3.908 16.845-2.949 35.236-1.915 54.559 1.434 26.658 2.912 54.221-9.103 79.292l-2.307 4.813-5.123 1.495c-24.293 7.079-49.278 6.124-73.431 5.199-23.149-0.891-45.152-1.713-65.642 4.215v58.887h80.217v100.669h-274.121v-100.669h76.926c3.56-16.807 3.772-35.656 0.58-55.364-89.423 9.172-151.603-42.332-211.78-92.245-17.084-14.169-34.737-28.74-52.869-41.885-23.364 1.632-47.456 3.116-71.014-2.509l-2.823-0.676-2.198-1.891c-15.022-12.937-14.104-30.877-13.37-45.292 0.249-4.881 0.481-9.588 0.154-13.8-3.956 0.003-7.912 0.034-11.807 0.072-18.555 0.205-37.656 0.396-56.699-3.577v51.459h-43.636v112.548c0 6.598-5.349 11.947-11.947 11.947s-11.947-5.349-11.947-11.947v-112.548h-43.65v-220.877h43.646v-109.336c0-6.598 5.349-11.947 11.947-11.947s11.947 5.349 11.947 11.947v109.336h43.643v53.845h67.557c1.236-5.434 0.986-11.94 0.7-18.736-0.604-14.305-1.359-32.109 13.322-45.158l2.328-2.068 3.041-0.669c12.121-2.669 25.265-4 39.673-4 10.923 0 22.62 0.812 35.086 2.345 88.958-85.146 194.649-107.059 296.424-107.059 32.502 0 64.614 2.229 95.642 5.342l3.113 0.314 2.56 1.795c38.035 26.716 65.096 66.174 91.273 104.332 12.005 17.5 24.381 35.516 37.533 51.801 14.718-2.864 29.522-3.587 44.158-3.587 7.148 0 14.257 0.171 21.292 0.335 9.571 0.229 18.726 0.437 27.791 0.256v-54.262h104.41v319.751h-104.41zM575.478 698.146h65.038c1.246-0.317 2.485-0.662 3.721-1.017v-57.733c-22.497-6.424-47.22-6.97-69.072-1.519 3.523 21.118 3.594 41.574 0.314 60.269zM498.118 774.922h226.335v-52.883h-81.186c-24.044 5.56-49.783 5.588-72.967 0h-72.178v52.883zM105.434 295.455h-63.399v173.090h63.396v-173.090zM129.328 416.423c17.934 4.615 36.646 4.444 56.443 4.239 3.57-0.041 7.199-0.075 10.854-0.085 2.092-22.381 3.608-47.886-1.123-71.277h-66.174v67.123zM224.901 281.385c-4.011 5.257-3.925 12.94-3.447 24.272 0.44 10.438 0.928 22.091-3.833 33.072 7.711 31.502 4.71 64.99 1.966 92.576 2.874 9.492 2.406 19.371 1.952 28.191-0.58 11.353-0.727 19.009 3.318 24.115 17.463 3.57 36.41 2.813 55.071 1.574 4.932-42.762 4.171-87.040 3.355-129.976-0.468-24.596-0.881-49.91-0.294-75.011-22.347-2.376-41.475-1.997-58.088 1.188zM760.34 275.357c-24.368-35.523-49.545-72.226-82.794-96.498-122.16-11.967-260.97-9.182-370.531 96.058-0.809 26.484-0.341 53.579 0.157 79.852 0.85 44.728 1.645 90.894-3.864 136.175 17.947 13.152 35.195 27.361 51.889 41.209 61.153 50.722 118.934 98.618 203.517 85.685 14.868-5.021 31.208-7.543 47.746-7.543 16.777 0 33.741 2.608 49.565 7.738 25.941-8.861 52.716-7.854 78.653-6.857 21.275 0.816 41.475 1.591 60.508-2.867 7.062-18.514 5.902-40.066 4.687-62.778-1.219-22.678-2.454-46.090 4.441-68.509-7.028-36.39-5.673-73.926-4.338-110.268 0.437-11.773 0.836-23.869 0.976-35.697-14.483-17.654-27.761-36.966-40.612-55.699zM882.459 334.275c-20.101-0.468-39.233-0.905-57.713 2.342-0.195 10.39-0.515 20.825-0.891 31.014-1.205 32.683-2.42 66.369 2.734 98.164h80.23c6.168-40.107 3.884-82.65 1.649-123.897-0.133-2.454-0.256-4.881-0.386-7.325-8.619 0.085-17.22-0.099-25.624-0.297zM991.334 280.272h-56.624v271.971h56.624v-271.971z" />
<glyph unicode="&#xe610;" d="M884.801-37.171h-753.343c-8.677 0-15.695 7.008-15.695 15.698v478.157h-78.473c-6.407 0-12.169 3.901-14.554 9.841-2.396 5.946-0.925 12.752 3.703 17.172l470.839 451.492c6.072 5.857 15.636 5.857 21.705 0l470.839-451.492c4.625-4.42 6.096-11.23 3.703-17.172-2.386-5.939-8.151-9.841-14.558-9.841h-78.473v-478.157c0-8.69-7.021-15.698-15.695-15.698v0zM720.531-5.782h148.579v478.164c0 8.677 7.018 15.695 15.691 15.695h55.115l-431.787 414.075-431.787-414.078h55.112c8.673 0 15.698-7.014 15.698-15.695v-478.164h148.579zM327.12-5.782h362.018zM391.431 597.419h233.397l-116.698 111.698-116.698-111.698z" />
<glyph unicode="&#xe611;" d="M718.834 38.929h-297.018c-0.942 0-1.707 0.765-1.707 1.707s0.765 1.707 1.707 1.707h297.018c0.942 0 1.707-0.765 1.707-1.707s-0.765-1.707-1.707-1.707z" />
<glyph unicode="&#xe612;" d="M869.11 225.727h-721.958c-0.942 0-1.707 0.765-1.707 1.707s0.765 1.707 1.707 1.707h721.958c0.942 0 1.707-0.765 1.707-1.707s-0.765-1.707-1.707-1.707z" />
<glyph unicode="&#xe613;" d="M376.241 394.721h45.575v-3.413h-45.575v3.413z" />
<glyph unicode="&#xe614;" d="M420.11 393.015h3.413v-352.375h-3.413v352.375z" />
<glyph unicode="&#xe615;" d="M339.5 311.375h379.331v-10.24h-379.331v10.24z" />
<glyph unicode="&#xe616;" d="M366.886 119.262c0-45.337-36.753-82.091-82.091-82.091s-82.091 36.753-82.091 82.091c0 45.337 36.753 82.091 82.091 82.091s82.091-36.753 82.091-82.091z" />
<glyph unicode="&#xe617;" d="M284.798 33.754c-47.148 0-85.507 38.359-85.507 85.511 0 47.142 38.359 85.494 85.507 85.494 47.145 0 85.501-38.352 85.501-85.494 0-47.152-38.356-85.511-85.501-85.511zM284.798 197.929c-43.383 0-78.681-35.29-78.681-78.667 0-43.387 35.294-78.684 78.681-78.684 43.38 0 78.674 35.297 78.674 78.684 0 43.377-35.294 78.667-78.674 78.667z" />
<glyph unicode="&#xe618;" d="M276.75 175.264c0.294 0 0.584 0 0.884 0 16.872-19.801 49.261-41.701 47.114-79.121-0.997-17.172-10.755-29.85-28.443-32.887 6.741 7.103 13.182 14.814 14.217 26.665 1.7 19.412-8.527 32.672-16.886 40.888-0.188 0.198-2.652 5.41-3.564 1.775 0.437-15.841-3.772-27.030-9.783-36.441-1.475 7.103-3.56 13.612-8.878 16.882-1.635-10.595-11.65-21.405-9.772-33.775 1.089-7.199 7.779-11.066 9.772-15.998-17.302 5.902-26.764 18.947-26.668 34.662 0.188 27.331 30.809 52.91 32.007 77.35z" />
<glyph unicode="&#xe619;" d="M773.84 473.767c15.131-6.096 5.338-24.084-1.229-32.003-0.256-6.001 5.045-6.444 4.922-12.302-14.24-1.577-10.069 23.32-1.225 28.307 2.383 8.182-6.496 10.11-2.468 15.998z" />
<glyph unicode="&#xe61a;" d="M739.376 465.149c13.875-4.157 7.503-23.477 0-29.539-2.161-8.315 4.687-7.622 3.69-14.769-17.715 3.267-6.212 23.9 0 30.771 0.174 5.605-7.223 8.486-3.69 13.537z" />
<glyph unicode="&#xe61b;" d="M809.537 465.149c14.94-2.905 7.229-24.549 0-29.539-1.686-7.844 4.608-7.7 3.697-14.769-16.21 3.57-7.537 23.211 0 29.542 1.717 7.513-7.386 9.216-3.697 14.766z" />
<glyph unicode="&#xe61c;" d="M723.371 269.438c-6.079 3.768-9.056 10.639-13.541 16.002 0 17.237 0 37.045 0 57.853 0 19.657-3.635 43.308 0 57.853 1.741 6.946 9.97 10.271 9.844 17.237 9.499 0.055 8.407-10.476 14.776-13.548 0-17.753 0-38.741 0-60.307 0-31.15 5.082-63.089-11.080-75.090z" />
<glyph unicode="&#xe61d;" d="M759.064 269.438c-6.919 2.509-8.335 10.534-13.527 14.769 0 17.319 0 37.711 0 59.085 0 31.887-5.612 64.229 12.302 75.090 4.687-4.345 7.888-10.172 12.305-14.769 0-17.459 0-37.847 0-59.085 0-19.872 3.635-43.339 0-57.856-1.775-7.096-9.609-11.141-11.080-17.234z" />
<glyph unicode="&#xe61e;" d="M793.528 269.438c-18.080 10.151-13.537 37.663-13.537 75.090 0 20.92-3.243 43.865 0 56.617 2.123 8.335 10.926 13.138 12.308 17.237 6.079-3.772 9.052-10.643 13.541-16.002 0-38.977 0-77.961 0-116.941-4.164-5.274-7.888-10.988-12.312-16.002z" />
<glyph unicode="&#xe61f;" d="M826.771 269.438c-2.4 6.636-8.066 9.987-11.073 16.002 0 17.237 0 37.045 0 57.853 0 19.657-3.642 43.308 0 57.853 1.734 6.946 9.96 10.271 9.841 17.237 8.881-0.966 9.694-10.004 14.773-14.769-5.775-34.348 7.707-86.907 0-118.173-1.556-6.287-8.359-13.373-13.541-16.002z" />
<glyph unicode="&#xe620;" d="M692.599 404.835c14.326 4.035 13.609-19.231 1.232-18.463-10.015 0.628-12.312 15.343-1.232 18.463z" />
<glyph unicode="&#xe621;" d="M777.4 217.399c15.52-6.25 5.475-24.702-1.266-32.823-0.256-6.164 5.175-6.612 5.048-12.626-14.602-1.615-10.322 23.924-1.263 29.041 2.454 8.393-6.653 10.373-2.519 16.408z" />
<glyph unicode="&#xe622;" d="M742.045 208.565c14.237-4.267 7.694-24.088 0-30.3-2.212-8.533 4.806-7.823 3.782-15.159-18.169 3.359-6.369 24.528 0 31.57 0.181 5.745-7.4 8.704-3.782 13.889z" />
<glyph unicode="&#xe623;" d="M814.019 208.565c15.326-2.976 7.41-25.18 0-30.3-1.734-8.049 4.727-7.902 3.785-15.159-16.623 3.673-7.728 23.811 0 30.314 1.768 7.7-7.571 9.452-3.785 15.145z" />
<glyph unicode="&#xe624;" d="M725.627 7.799c-6.236 3.86-9.291 10.906-13.885 16.408 0 17.684 0 38.011 0 59.351 0 20.159-3.738 44.431 0 59.348 1.789 7.127 10.226 10.537 10.1 17.681 9.742 0.058 8.619-10.745 15.159-13.889 0-18.217 0-39.745 0-61.873 0-31.959 5.205-64.71-11.373-77.025z" />
<glyph unicode="&#xe625;" d="M762.242 7.799c-7.1 2.57-8.547 10.8-13.882 15.148 0 17.766 0 38.683 0 60.611 0 32.71-5.745 65.894 12.619 77.025 4.809-4.454 8.093-10.431 12.636-15.155 0-17.906 0-38.816 0-60.607 0-20.381 3.717-44.455 0-59.348-1.826-7.274-9.861-11.428-11.373-17.674z" />
<glyph unicode="&#xe626;" d="M797.6 7.799c-18.555 10.411-13.885 38.629-13.885 77.018 0 21.46-3.335 45.005 0 58.085 2.181 8.554 11.213 13.483 12.623 17.681 6.24-3.867 9.295-10.916 13.892-16.422 0-39.984 0-79.968 0-119.958-4.28-5.4-8.093-11.257-12.629-16.404z" />
<glyph unicode="&#xe627;" d="M831.689 7.799c-2.454 6.793-8.271 10.243-11.356 16.408 0 17.684 0 38.011 0 59.351 0 20.159-3.734 44.431 0 59.348 1.778 7.127 10.22 10.537 10.097 17.681 9.114-0.997 9.936-10.264 15.155-15.155-5.929-35.232 7.902-89.136 0-121.221-1.591-6.448-8.571-13.718-13.896-16.411z" />
<glyph unicode="&#xe628;" d="M694.057 146.695c14.701 4.137 13.971-19.729 1.266-18.947-10.278 0.645-12.626 15.753-1.266 18.947z" />
<glyph unicode="&#xe629;" d="M364.264 360.854c-10.107-5.362-26.737-4.215-37.14-9.288-2.041-13.38 21.675-1.014 24.764-9.291 2.485-8.97 8.537-36.4-3.103-40.23-14.339-1.959-7.83 16.916-9.281 27.853-8.919 0.369-20.265-1.696-24.76 3.092-7.67 3.693 4.202 26.914-12.38 21.678-16.978-4.707 4.332-47.671-12.384-52.623-18.063 1.543-5.591 33.608-9.291 49.521-10.407 5.069-27.030 3.922-37.14 9.288-19.47 42.431-4.666 119.146-9.284 176.428 15.957 29.508 96.451 20.255 130.004 12.38 13.124-13.78 9.281-49.801 9.281-95.945-0.003-42.499 4.28-76.107-9.284-92.863zM259.017 534.19c-12.087-39.844-6.281-112.923-3.096-157.863 31.133 1.894 69.926-3.891 95.966 3.103 5.253 44.646 4.96 110.063 0 154.757-31.543-0.939-70.496 1.406-92.87 0.003z" />
<glyph unicode="&#xe62a;" d="M305.446 413.474c-6.438 1.809-10.001 6.499-15.469 9.284-2.731 44.015 50.439 3.639 15.469-9.284z" />
<glyph unicode="&#xe62b;" d="M330.206 410.378c0-7.216 0-14.445 0-21.668-18.009 1.594-42.684-3.485-55.706 3.089-6.912 31.672 35.505 14.032 55.706 18.579z" />
<glyph unicode="&#xe62c;" d="M285.013 314.842h10.24v-113.5h-10.24v113.5z" />
<glyph unicode="&#xe62d;" glyph-name="el-jrataqacucich" d="M407.272 135.257l-0.485 0.901c-5.683 10.598-12.496 16.288-17.975 20.873-3.372 2.816-6.287 5.25-8.503 8.339l-0.925 1.294-1.505 0.505c-6.772 2.253-16.486 2.796-25.057 3.277l-4.076 0.239-0.669-0.15c-17.401-3.847-29.706-19.913-35.584-46.466l-0.253-1.154 0.304-1.143c1.516-5.769 6.659-12.629 12.872-20.528 8.045-9.325 19.715-14.459 32.867-14.459 14.435 0 28.703 6.127 38.168 16.394 8.073 8.752 11.844 19.497 10.899 31.075l-0.079 1.004zM474.15 260.321c-7.008 2.331-18.022 2.686-27.201 3.236-19.616-4.338-28.044-25.511-31.863-42.749 1.304-4.966 6.465-11.732 11.844-18.579 23.607-27.372 76.363-7.55 73.359 29.423-8.605 16.049-19.552 19.49-26.139 28.669zM745.564 349.553c0.734 179.050-0.055 368.691-4.065 559.626l-0.102 4.55-3.048 3.379c-27.689 30.7-70.158 22.514-104.274 15.937-4.973-0.959-9.793-1.888-14.387-2.656-4.799-0.802-8.445-4.318-9.704-8.704-0.024 0-0.048 0.003-0.068 0.010-35.676 4.99-72.11 6.468-108.67 6.161-0.181 0-0.358 0-0.536 0-4.233-0.038-8.465-0.099-12.701-0.181-0.539-0.010-1.082-0.020-1.621-0.031-4-0.082-7.994-0.181-11.998-0.3-0.768-0.017-1.536-0.041-2.301-0.068-3.833-0.119-7.66-0.242-11.493-0.389-0.949-0.038-1.898-0.075-2.847-0.106-3.666-0.143-7.328-0.29-10.988-0.451-1.195-0.055-2.386-0.109-3.574-0.167-3.441-0.157-6.888-0.314-10.315-0.488-1.481-0.072-2.953-0.154-4.427-0.225-3.185-0.167-6.366-0.324-9.544-0.498-2.133-0.113-4.26-0.232-6.393-0.352-2.464-0.13-4.936-0.266-7.397-0.406-4.656-0.256-9.305-0.522-13.943-0.788l-10.397-0.584c-0.044 0.618-0.154 1.215-0.29 1.799-0.031 0.143-0.051 0.287-0.089 0.43-0.14 0.522-0.324 1.024-0.529 1.522-0.085 0.201-0.157 0.396-0.249 0.584-0.212 0.444-0.444 0.857-0.71 1.27-0.14 0.229-0.294 0.454-0.451 0.672-0.259 0.355-0.529 0.689-0.816 1.010-0.218 0.246-0.457 0.478-0.7 0.7-0.283 0.27-0.57 0.529-0.877 0.771-0.307 0.239-0.645 0.447-0.976 0.662-0.287 0.181-0.57 0.372-0.87 0.529-0.427 0.218-0.881 0.389-1.335 0.563-0.256 0.099-0.502 0.215-0.765 0.297-0.737 0.222-1.505 0.389-2.301 0.468-3.915 0.382-7.878 0.806-11.895 1.229-32.587 3.43-69.526 7.322-101.823-4.198l-7.601-2.707-0.502-8.049c-13.64-221.252-10.94-450.557-8.335-672.307 0.997-84.815 2.028-172.517 2.113-258.12v-3.444l1.806-2.932c14.022-22.852 36.762-27.255 58.832-27.255 7.339 0 14.609 0.488 21.453 0.942 10.612 0.717 20.63 1.376 29.133 0.382l1.772-0.137 1.512 0.201c1.434 0.191 2.874 0.386 4.314 0.577v-0.010c0.072-0.389 0.195-0.765 0.311-1.137 0.065-0.201 0.116-0.403 0.188-0.601 0.133-0.335 0.29-0.645 0.461-0.956 0.113-0.215 0.218-0.437 0.352-0.649 0.171-0.273 0.362-0.529 0.563-0.792 0.164-0.215 0.338-0.433 0.522-0.635 0.208-0.222 0.416-0.433 0.638-0.638 0.222-0.212 0.461-0.396 0.707-0.58 0.218-0.16 0.437-0.324 0.679-0.481 0.287-0.181 0.587-0.331 0.894-0.488 0.222-0.113 0.447-0.229 0.683-0.324 0.369-0.147 0.751-0.249 1.13-0.355 0.208-0.051 0.399-0.123 0.608-0.16 0.608-0.116 1.225-0.195 1.871-0.195h251.508c0.621 0 1.232 0.075 1.826 0.195 0.208 0.038 0.406 0.096 0.618 0.154 0.362 0.102 0.724 0.198 1.075 0.335 0.253 0.096 0.495 0.212 0.73 0.335 0.273 0.123 0.522 0.266 0.782 0.416 0.27 0.164 0.526 0.335 0.778 0.522 0.181 0.126 0.352 0.283 0.515 0.416 0.287 0.246 0.563 0.498 0.812 0.768 0.061 0.065 0.102 0.13 0.16 0.191 1 1.143 1.751 2.505 2.14 4.028 8.492 0.993 18.528 0.321 29.129-0.389 6.847-0.461 14.118-0.939 21.46-0.939 22.077 0 44.81 4.407 58.836 27.242l1.768 2.881 0.048 3.366c0.075 5.908 0.147 11.875 0.218 17.831 71.325 24.358 122.774 91.989 122.774 171.469 0.007 78.353-50.016 145.244-119.811 170.452zM717.981-6.246c-10.527-14.042-28.491-13.974-56.067-12.111-10.701 0.717-21.736 1.461-32.044 0.451-2.154 0.287-4.318 0.573-6.479 0.881-6.731 0.87-12.865-3.748-13.797-10.435-0.123-0.918-0.123-1.812-0.061-2.703h-234.926c0.072 0.891 0.072 1.785-0.055 2.703-0.928 6.697-7.134 11.325-13.793 10.435-2.12-0.3-4.233-0.58-6.485-0.881-10.288 1.010-21.337 0.266-32.041-0.451-27.518-1.857-45.493-1.932-56.013 12.052-0.109 84.541-1.123 171.005-2.113 254.641-2.567 218.491-5.219 444.341 7.779 662.098 25.433 6.683 54.893 3.577 83.463 0.57 3.198-0.338 6.342-0.662 9.475-0.98 0.051-0.181 0.133-0.341 0.198-0.519 0.225-0.655 0.512-1.273 0.864-1.857 0.143-0.236 0.273-0.478 0.433-0.696 0.174-0.242 0.379-0.468 0.573-0.689 0.195-0.218 0.386-0.44 0.597-0.642 0.205-0.201 0.42-0.375 0.645-0.553 0.246-0.195 0.495-0.382 0.754-0.553 0.225-0.143 0.447-0.287 0.689-0.416 0.297-0.167 0.608-0.304 0.922-0.433 0.225-0.099 0.451-0.198 0.686-0.273 0.372-0.123 0.758-0.205 1.147-0.29 0.201-0.038 0.396-0.096 0.604-0.126 0.604-0.085 1.222-0.116 1.85-0.085l17.493 0.99c77.814 4.4 158.273 8.967 233.325-4.451 0.577-0.102 1.161-0.157 1.734-0.157 4.642 0 8.762 3.325 9.615 8.059 0.079 0.464 0.092 0.918 0.099 1.379 0.546 0.106 1.082 0.205 1.638 0.314 28 5.4 59.529 11.472 78.452-5.287 3.874-186.607 4.659-371.937 3.983-547.273-11.93 2.485-24.289 3.799-36.956 3.799-99.901 0-181.176-81.282-181.176-181.19 0-99.905 81.275-181.183 181.176-181.183 11.585 0 22.903 1.133 33.891 3.226-0.017-2.437-0.055-4.919-0.082-7.363zM742.919 33.823c-7.888-3.202-16.084-5.772-24.545-7.663-11.015-2.458-22.449-3.799-34.188-3.799-86.426 0-156.733 70.315-156.733 156.74 0 86.415 70.308 156.73 156.733 156.73 12.694 0 25.020-1.553 36.844-4.413 8.421-2.038 16.585-4.724 24.416-8.059 56.074-23.9 95.478-79.561 95.478-144.258 0.010-65.669-40.591-121.993-98.004-145.278zM361.458 701.713c0.393 6.659 0.72 14.1 0.853 19.637h0.137c1.249-5.27 3.024-11.005 5.137-17.265l7.182-21.149h4.349l7.844 21.548c2.239 6.127 4.086 11.663 5.605 16.865h0.195c-0.068-5.536 0.328-12.977 0.662-19.176l1.123-19.5h5.598l-2.765 44.407h-7.308l-7.909-21.48c-1.976-5.605-3.56-10.479-4.683-14.957h-0.198c-1.12 4.611-2.635 9.486-4.478 14.957l-7.581 21.48h-7.311l-3.099-44.407h5.465l1.184 19.040zM433.923 687.479h-19.241v16.015h17.268v4.738h-17.268v14.036h18.255v4.813h-23.985v-44.407h24.972zM447.092 701.908h5.403c5.205-0.198 7.581-2.502 8.895-8.629 1.249-5.54 2.239-9.363 2.963-10.605h5.926c-0.922 1.707-1.976 5.994-3.424 12.189-1.055 4.615-3.096 7.779-6.523 8.963v0.195c4.68 1.587 8.369 5.475 8.369 11.336 0 3.424-1.253 6.458-3.492 8.438-2.765 2.502-6.721 3.625-12.848 3.625-3.956 0-8.1-0.328-11.001-0.922v-43.814h5.731v19.224zM447.099 722.47c0.922 0.263 2.901 0.522 5.663 0.522 6.065-0.065 10.216-2.567 10.216-8.298 0-5.076-3.888-8.438-10.015-8.438h-5.864v16.213zM496.312 682.011c5.403 0 9.622 1.062 11.732 2.109l-1.188 4.547c-2.307-1.12-5.861-1.843-9.359-1.843-10.807 0-17.063 6.984-17.063 17.855 0 11.663 6.922 18.316 17.329 18.316 3.69 0 6.786-0.788 8.96-1.843l1.382 4.683c-1.522 0.792-5.007 1.976-10.544 1.976-13.766 0-23.19-9.424-23.19-23.327 0.003-14.565 9.424-22.473 21.941-22.473zM531.101 681.943c9.615 0 16.804 5.608 16.804 19.244v25.897h-5.799v-26.293c0-9.813-4.212-14.162-10.81-14.162-5.926 0-10.339 4.215-10.339 14.162v26.293h-5.803v-26.16c-0.003-13.773 6.854-18.982 15.947-18.982zM563.572 701.908h5.407c5.202-0.198 7.581-2.502 8.888-8.629 1.253-5.54 2.246-9.363 2.97-10.605h5.922c-0.918 1.707-1.976 5.994-3.417 12.189-1.062 4.615-3.099 7.779-6.526 8.963v0.195c4.68 1.587 8.369 5.475 8.369 11.336 0 3.424-1.253 6.458-3.495 8.438-2.761 2.502-6.717 3.625-12.851 3.625-3.953 0-8.096-0.328-11.001-0.922v-43.814h5.731v19.224zM563.582 722.47c0.922 0.263 2.895 0.522 5.656 0.522 6.065-0.065 10.216-2.567 10.216-8.298 0-5.076-3.888-8.438-10.018-8.438h-5.857v16.213zM602.453 682.673h5.792v18.91l14.889 25.501h-6.523l-6.39-12.257c-1.713-3.366-3.226-6.257-4.482-9.161h-0.13c-1.376 3.096-2.693 5.799-4.407 9.161l-6.263 12.257h-6.519l14.032-25.569v-18.842zM402.609 435.692h84.477v-14.671h-84.477v14.671zM500.412 435.692h84.477v-14.671h-84.477v14.671zM754.504 308.043h-88.695c-2.048 0-3.932-1.161-4.82-2.993l-43.36-87.716c-1.778-3.587 0.829-7.793 4.823-7.793h19.999c3.98 0 6.598-4.202 4.816-7.786l-29.655-59.996c-1.772-3.577 0.843-7.782 4.83-7.782h18.842c3.983 0 6.577-4.151 4.85-7.741l-33.478-69.065c-2.662-5.472 4.366-10.462 8.656-6.141l82.787 83.166c3.393 3.393 0.976 9.185-3.823 9.185h-6.608c-4.495 0-7.028 5.199-4.229 8.731l43.906 55.354c2.796 3.536 0.297 8.735-4.229 8.735h-22.074c-4.451 0-6.984 5.069-4.318 8.625l56.084 74.595c2.669 3.557 0.137 8.622-4.304 8.622z" />
<glyph unicode="&#xe62e;" d="M713.83 885.862c-103.837 69.263-379.211 69.267-483.034 0l-5.086-3.389v-745.011l3.314-3.342c11.988-12.083 26.764-20.651 41.059-28.952 14.783-8.581 34.485-14.817 44.585-26.105 4.195-4.7 15.708-11.455 18.272-5.683 2.806 6.318-2.772 14.333-6.977 19.033-12.52 14.005-28.733 23.409-44.411 32.505-12.124 7.042-23.654 13.732-32.997 22.135v723.046c98.437 59.887 349.088 59.887 447.522 0v-724.289c-5.625-6.881-15.251-11.291-25.378-15.93-16.899-7.745-37.939-17.391-43.24-42.738-1.283-6.182 2.666-12.227 8.847-13.517 0.788-0.164 1.574-0.246 2.348-0.246 5.294 0.003 10.042 3.703 11.168 9.086 2.792 13.394 13.377 18.855 30.389 26.655 13.175 6.038 28.109 12.879 36.953 26.979l1.751 2.775v743.598l-5.086 3.389z" />
<glyph unicode="&#xe62f;" d="M638.635 76.885c-1.205 0-2.41 0.28-3.543 0.847l-11.452 5.745c-3.912 1.959-5.485 6.714-3.529 10.619s6.731 5.475 10.622 3.523l11.448-5.741c3.908-1.959 5.485-6.717 3.523-10.622-1.382-2.772-4.181-4.369-7.069-4.369z" />
<glyph unicode="&#xe630;" d="M475.126 115.108c-72.223 0-142.889 12.506-193.891 34.328l-2.772 1.178v673.83l5.356-0.945c49.432-8.707 113.046-13.312 183.951-13.312 71.325 0 145.906 4.861 204.623 13.336l5.243 0.758-0.024-5.301c-0.703-129.492-2.086-499.357 0-653.807l0.034-2.505-2.092-1.369c-44.674-29.358-117.74-46.189-200.428-46.189zM287.601 156.658c49.688-20.627 117.804-32.42 187.525-32.42 79.657 0 149.907 15.773 193.335 43.332-2.014 153.914-0.713 512.877 0.003 646.161-58.289-8.076-131.052-12.681-200.687-12.681-68.905 0-131.034 4.328-180.176 12.53v-656.923z" />
<glyph unicode="&#xe631;" d="M373.859 6.24c-45.076 0-50.104 54.265-51.77 72.189-0.355 3.768 2.423 7.11 6.188 7.462 3.789 0.396 7.11-2.423 7.455-6.188 3.775-40.731 15.923-59.75 38.188-59.75 0.287 0 0.573 0.003 0.867 0.007 3.724 0 6.779-2.983 6.851-6.721 0.072-3.785-2.939-6.912-6.724-6.984-0.352-0.007-0.707-0.014-1.055-0.014z" />
<glyph unicode="&#xe632;" d="M374.787 6.25c-3.103 0-5.908 2.12-6.659 5.27-0.87 3.68 1.403 7.373 5.082 8.247 36.57 8.697 74.691 5.779 111.551 2.97 16.701-1.28 33.973-2.598 50.715-2.782 3.785-0.044 6.82-3.137 6.775-6.929-0.051-3.785-3.178-6.789-6.926-6.772-17.196 0.198-34.69 1.529-51.61 2.826-35.823 2.734-72.851 5.55-107.339-2.635-0.536-0.13-1.068-0.195-1.591-0.195z" />
<glyph unicode="&#xe633;" d="M535.395 8.533c-2.007 0-3.847 1.324-4.407 3.345-0.669 2.434 0.761 4.949 3.185 5.618 14.176 3.912 30.29 1.355 36.55 0.072 2.475-0.498 4.072-2.918 3.557-5.386-0.495-2.475-2.925-4.055-5.383-3.557-11.715 2.389-23.788 2.423-32.283 0.072-0.406-0.109-0.812-0.164-1.219-0.164z" />
<glyph unicode="&#xe634;" d="M571.136 6.229c-0.492 0-0.983 0.010-1.485 0.020-3.782 0.089-6.779 3.226-6.69 7.011 0.089 3.731 3.14 6.694 6.844 6.694 0.065 0 0.109 0 0.171 0 26.487-0.703 34.423 20.145 43.858 51.896 2.243 7.554 4.366 14.701 6.984 21.241 1.406 3.512 5.396 5.222 8.899 3.813 3.516-1.403 5.226-5.396 3.823-8.899-2.386-5.96-4.417-12.81-6.571-20.064-8.182-27.532-18.347-61.713-55.832-61.713z" />
<glyph unicode="&#xe635;" d="M615.697 76.885c-2.901 0-5.69 1.608-7.083 4.379-1.952 3.908-0.369 8.663 3.536 10.615l11.486 5.741c3.901 1.949 8.663 0.372 10.615-3.533 1.952-3.912 0.365-8.666-3.543-10.615l-11.479-5.748c-1.123-0.57-2.342-0.84-3.533-0.84z" />
<glyph unicode="&#xe636;" d="M328.141 188.474c-9.277 0-16.797 7.513-16.797 16.797v550.632c0 9.277 7.516 16.8 16.797 16.8s16.8-7.52 16.8-16.8v-550.632c0-9.277-7.523-16.797-16.8-16.797z" />
<glyph unicode="&#xe637;" d="M391.66 10.407c3.14-21.187-7.683-47.295 7.509-64.874 6.089-2.14 12.78-1.778 19.483-1.294 17.783 16.862 7.356 45.534 10.383 67.519z" />
<glyph unicode="&#xe638;" d="M507.529 10.407c3.137-21.187-7.683-47.295 7.503-64.874 6.083-2.14 12.786-1.778 19.487-1.294 17.783 16.862 7.345 45.534 10.377 67.519z" />
<glyph unicode="&#xe639;" d="M811.79 207.152c0-91.749-74.378-166.127-166.127-166.127s-166.127 74.378-166.127 166.127c0 91.749 74.378 166.127 166.127 166.127s166.127-74.378 166.127-166.127z" />
<glyph unicode="&#xe63a;" d="M645.67 36.448c-94.123 0-170.701 76.582-170.701 170.708 0 94.109 76.578 170.684 170.701 170.684 94.116 0 170.691-76.575 170.691-170.684 0-94.129-76.575-170.708-170.691-170.708zM645.67 368.705c-89.091 0-161.567-72.468-161.567-161.55 0-89.098 72.479-161.57 161.567-161.57 89.085 0 161.556 72.472 161.556 161.57 0 89.078-72.472 161.55-161.556 161.55z" />
<glyph unicode="&#xe63b;" d="M629.374 320.481c0.601 0 1.201 0 1.792 0 34.164-40.045 99.707-84.381 95.351-160.113-2.004-34.737-21.763-60.392-57.569-66.553 13.674 14.394 26.672 29.979 28.785 53.972 3.461 39.287-17.261 66.12-34.174 82.749-0.386 0.386-5.4 10.943-7.199 3.598 0.884-32.068-7.653-54.712-19.791-73.762-3.014 14.384-7.223 27.559-17.985 34.191-3.287-21.473-23.559-43.339-19.791-68.362 2.195-14.561 15.773-22.385 19.791-32.382-35.014 11.953-54.166 38.349-53.965 70.161 0.348 55.296 62.327 107.056 64.754 156.501z" />
<glyph unicode="&#xe63c;" glyph-name="gaz-katsa" d="M797.723 930.594l-0.068 3.174-2.127 2.359c-25.658 28.454-65.942 20.695-98.321 14.455-4.864-0.939-9.585-1.85-14.083-2.601-1.761-0.294-3.304-1.113-4.499-2.263-72.697 11.926-149.364 7.629-223.584 3.42l-10.237-0.577c-1.382 1.642-3.376 2.772-5.683 2.997-3.82 0.375-7.694 0.785-11.612 1.198-31.348 3.308-66.874 7.049-97.577-3.908l-5.304-1.891-0.348-5.618c-13.261-215.136-10.639-438.166-8.103-653.858 0.969-82.538 1.973-167.885 2.058-251.197v-2.403l1.26-2.051c12.776-20.811 33.147-24.941 53.944-24.941 7.072 0 14.196 0.478 21.084 0.939 10.486 0.7 20.388 1.365 28.959 0.358l1.133-0.113 1.055 0.14c1.806 0.239 3.615 0.488 5.42 0.734v-1.987h24.3c0.174-6.021-0.266-12.302-0.73-18.456-1.277-16.916-2.598-34.41 8.94-47.773l0.266-0.311 0.386-0.137c4.212-1.485 8.527-1.949 13.22-1.949 2.932 0 6.011 0.184 9.312 0.413l0.55 0.041 0.403 0.379c14.070 13.35 13.018 32.792 12.001 51.596-0.304 5.618-0.553 11.008-0.464 16.196h118.272c0.089-5.188-0.16-10.581-0.464-16.193-1.014-18.807-2.062-38.25 12.012-51.599l0.399-0.379 0.553-0.041c3.294-0.232 6.373-0.413 9.305-0.413 4.69 0 8.998 0.468 13.21 1.949l0.386 0.137 0.27 0.311c11.537 13.363 10.216 30.857 8.936 47.773-0.464 6.154-0.905 12.438-0.73 18.456h28.232v1.451c0.522-0.072 1.017-0.137 1.56-0.208l1.058-0.14 1.058 0.123c8.581 1.010 18.476 0.341 28.962-0.358 6.892-0.464 14.008-0.939 21.088-0.939 20.797 0 41.175 4.13 53.951 24.938l1.232 2.007 0.031 2.352c3.314 264.595 5.803 577.768-0.867 894.409zM781.558 38.898c-12.070-17.125-34.468-15.619-58.126-14.032-10.404 0.7-21.152 1.413-31.003 0.406-2.229 0.294-4.468 0.591-6.7 0.908-2.615 0.358-5.076-0.512-6.885-2.14h-240.865c-1.809 1.635-4.277 2.509-6.881 2.14-2.222-0.314-4.441-0.611-6.707-0.908-9.841 1.010-20.593 0.294-31-0.406-23.641-1.587-46.015-3.089-58.085 13.991-0.102 82.592-1.096 167.093-2.055 248.832-2.509 213.436-5.103 434.084 7.718 646.803 25.876 7.506 55.781 4.355 84.76 1.3 3.188-0.335 6.321-0.659 9.445-0.973-8.168-164.267-6.912-331.875-5.673-494.066 0.771-101.113 1.57-205.67 0.068-308.282-0.020-1.502 1.178-2.741 2.683-2.761 0.014 0 0.027 0 0.041 0 0.775 0 1.464 0.335 1.959 0.853h29.962c1.884 0 3.413 1.526 3.413 3.413s-1.529 3.413-3.413 3.413h-29.146c1.403 101.069 0.631 203.899-0.13 303.404-1.239 162.225-2.495 329.875 5.687 494.094 1.939 0.556 3.598 1.795 4.717 3.458l10.281 0.577c73.684 4.178 149.78 8.445 221.392-3.311 1.027-1.949 2.751-3.403 4.813-4.096v-787.302h-40.12c-1.888 0-3.413-1.526-3.413-3.413s1.526-3.413 3.413-3.413h42.312c0.174-0.034 0.331-0.102 0.512-0.102s0.341 0.072 0.512 0.102h1.038c1.888 0 3.413 1.526 3.413 3.413 0 1.475-0.942 2.703-2.253 3.181v787.401c4.243 0.727 8.646 1.567 13.199 2.444 28.556 5.502 60.795 11.715 80.292-6.939 6.554-314.262 4.11-625.009 0.826-887.989zM631.467 190.222c-1.437 2.522-3.686 4.413-6.134 5.762-2.454 1.362-5.151 2.205-7.892 2.659-2.792 0.481-5.523 0.358-8.137 0.451l-79.722 1.546-31.887 0.345-8.066 0.017c-2.973-0.072-5.956-0.573-8.834-1.574-2.867-1.007-5.67-2.519-8.042-4.833-1.174-1.164-2.236-2.54-3.011-4.154-0.382-0.806-0.7-1.662-0.911-2.56-0.208-0.782-0.335-2.144-0.321-2.625l0.126-32.017 0.352-31.891 0.283-15.944 0.041-1.993c0.017-0.628 0-1.324 0.102-2.253 0.198-1.713 0.809-3.352 1.669-4.745 1.737-2.806 4.267-4.738 6.902-6.069 2.656-1.348 5.495-2.113 8.346-2.481 1.379-0.181 2.939-0.249 4.28-0.218l83.705 1.618 31.891 0.345c5.267 0.109 10.745-0.451 15.807 1.495 2.502 0.894 4.881 2.232 6.775 4.113 1.888 1.857 3.226 4.4 3.198 7.086 0.007-2.686-1.352-5.205-3.239-7.042-1.905-1.857-4.28-3.171-6.775-4.038-5.041-1.898-10.479-1.294-15.763-1.359l-31.891 0.345-83.705 1.618c-1.314 0.027-2.413 0.133-3.663 0.335-2.4 0.406-4.741 1.154-6.786 2.301-2.048 1.126-3.799 2.686-4.789 4.471-0.498 0.887-0.785 1.819-0.853 2.751-0.034 0.389-0.010 1.027 0 1.727l0.041 1.993 0.283 15.944 0.352 31.891 0.13 31.761c-0.123 3.458 3.43 6.612 7.707 8.107 2.137 0.765 4.451 1.188 6.789 1.26l7.878 0.044 31.887 0.345 79.722 1.546c2.693 0.020 5.308 0.232 7.782-0.106 2.509-0.314 4.994-0.983 7.236-2.116 2.239-1.113 4.27-2.717 5.557-4.782 0.642-1.027 1.068-2.178 1.215-3.369 0.119-1.15 0.079-2.608 0.126-3.898l0.28-15.944c0.317-21.262 0.42-42.516 0.481-63.778 0.061 21.262 0.164 42.516 0.481 63.778l0.28 15.944c0.003 1.365 0.109 2.574 0.024 4.069-0.123 1.447-0.594 2.871-1.311 4.123zM523.93 138.759v0.096c3.389 1.242 5.444 3.963 5.444 7.069 0 2.529-1.004 4.441-2.673 5.683-2.007 1.625-4.68 2.342-8.837 2.342-2.915 0-5.779-0.287-7.595-0.669v-31.662c1.386-0.195 3.581-0.382 6.448-0.382 5.253 0 8.885 0.956 11.131 3.011 1.625 1.577 2.72 3.676 2.72 6.448-0.003 4.772-3.581 7.305-6.639 8.066zM514.423 150.463c0.669 0.143 1.768 0.287 3.68 0.287 4.202 0 7.066-1.481 7.066-5.253 0-3.106-2.577-5.396-6.973-5.396h-3.772v10.363zM517.908 124.481c-1.481 0-2.673 0.051-3.485 0.195v12.274h3.437c4.536 0 8.311-1.812 8.311-6.209 0-4.683-3.963-6.26-8.264-6.26zM544.652 153.709l-10.936-32.191h4.301l3.342 10.127h11.414l3.441-10.127h4.441l-10.984 32.191h-5.018zM542.222 134.895l3.151 9.315c0.625 1.956 1.147 3.915 1.625 5.827h0.096c0.478-1.864 0.956-3.772 1.673-5.874l3.151-9.267h-9.694zM586.919 153.709h-4.775l-4.393-7.547c-1.198-2.055-2.007-3.533-2.915-5.444h-0.14c-0.86 1.72-1.772 3.342-2.963 5.444l-4.25 7.547h-4.823l9.458-15.903-9.841-16.285h4.775l3.871 7.069c1.669 2.816 2.577 4.536 3.485 6.4h0.092c1.004-1.864 2.055-3.628 3.727-6.352l4.106-7.117h4.823l-10.028 16.527 9.789 15.66zM591.978 153.709h4.154v-32.191h-4.154v32.191z" />
<glyph unicode="&#xe63d;" glyph-name="koyuxi" d="M623.172 578.15c-9.776 0-39.151 0.072-44.285 27.457l-0.256 1.372 0.195 1.382c3.765 26.911 33.304 26.911 44.428 26.911 6.636 0 13.66-0.41 20.449-0.806 9.151-0.532 18.971-1.027 26.17-0.591 7.212 28.112 3.673 64.621 0.242 99.997-5.062 52.176-10.298 106.127 18.893 137.318l2.714 2.901 3.97-0.212c5.769-0.307 12.114-0.454 19.391-0.454h0.003c9.465 0 19.401 0.256 29.007 0.498 9.714 0.249 19.76 0.505 29.443 0.505 24.375 0 41.458-1.707 55.398-5.54l5.342-1.468 0.833-5.475c6.704-44.025 5.758-96.072 4.84-146.408-0.495-27.242-1.007-55.33-0.287-81.783 7.141-0.317 16.517 0.215 25.252 0.761 7.069 0.44 14.38 0.898 21.262 0.898 9.673 0 35.369 0 42.458-20.787l0.44-1.29 0.017-1.362c0.113-9.755-2.666-17.568-8.26-23.231-9.049-9.155-23.091-10.329-34.307-10.329-6.045 0-12.278 0.393-18.302 0.775-6.455 0.413-12.506 0.799-17.903 0.683-23.303-0.485-49.172-0.72-79.087-0.72-37.233 0-75.756 0.372-108.943 0.717l-1.109 0.007c-5.533 0-11.544-0.403-17.903-0.829-6.615-0.444-13.449-0.901-20.029-0.901-0.024 0.003-0.051 0.003-0.075 0.003zM595.968 607.379c1.881-7.356 7.69-12.162 27.283-12.162 6.011 0 12.558 0.437 18.889 0.86 6.359 0.427 12.94 0.867 19.043 0.867l1.29-0.007c33.143-0.348 71.612-0.717 108.762-0.717 29.795 0 55.549 0.236 78.732 0.717 6.045 0.119 12.814-0.297 19.333-0.71 5.762-0.365 11.725-0.741 17.227-0.741 11.418 0 18.671 1.72 22.166 5.26 2.072 2.096 3.164 5.229 3.318 9.547-1.898 3.977-7.151 8.062-25.832 8.062-6.345 0-13.387-0.44-20.197-0.864-7.066-0.444-14.377-0.901-21.258-0.901-5.618 0-10.397 0.304-14.606 0.932l-7.011 1.044-0.259 7.083c-1.072 29.075-0.505 60.153 0.041 90.211 0.864 47.452 1.758 96.454-3.84 137.895-11.534 2.492-25.897 3.618-45.513 3.618-9.462 0-19.401-0.253-29.007-0.498-9.714-0.249-19.76-0.505-29.443-0.505h-0.003c-5.881 0-11.192 0.092-16.118 0.287-21.077-26.167-16.596-72.342-11.865-121.126 3.816-39.373 7.765-80.084-2.502-112.166l-1.632-5.093-5.294-0.754c-4.188-0.594-8.936-0.884-14.517-0.884-6.636 0-13.657 0.41-20.449 0.802-6.547 0.382-13.315 0.778-19.456 0.778-21.972-0.010-26.126-5.369-27.283-10.837zM164.796 691.678c0-70.414 0-140.824 0-211.238-12.708-12.336-40.745-9.322-65.717-9.387-0.649 57.286 0.471 152.644 0 225.321 22.921-0.546 49.469 2.522 65.717-4.697zM249.293 668.211c0-56.334 0-112.664 0-168.991-14.346-9.124-36.219-10.721-61.020-9.387 0 62.583 0 125.177 0 187.767 23.869 0.403 49.002 2.055 61.020-9.39zM515.379 399.22c-31.109 0-68.789 2.703-98.342 7.055l-7.503 1.106 0.215 7.581c0.932 32.594 1.010 63.536-7.953 83.951-10.397 9.434-31.71 10.738-51.33 10.738-5.676 0-11.462-0.109-17.251-0.218-5.895-0.109-11.79-0.222-17.572-0.222-14.828 0-31.846 0.642-45.67 5.407l-6.117 2.109 0.382 6.461c0.963 16.323-0.864 33.847-2.628 50.79-2.915 27.983-5.932 56.914 3.082 82.934l1.939 5.594 5.919 0.143c7.148 0.174 14.203 0.259 20.975 0.259 106.134 0 175.705-21.436 218.945-67.458 39.161-41.677 55.668-102.506 50.459-185.958l-0.423-6.806-6.735-1.085c-9.796-1.584-23.388-2.383-40.393-2.383zM427.015 422.12c27.259-3.581 61.051-5.833 88.368-5.833 12.192 0 22.705 0.44 30.908 1.287 3.591 74.871-11.568 129.28-46.251 166.195-39.793 42.353-105.411 62.078-206.507 62.078-4.687 0-9.516-0.044-14.418-0.126-5.618-21.088-3.133-44.889-0.522-69.97 1.601-15.353 3.246-31.164 2.953-46.694 10.465-2.406 22.924-2.775 34.106-2.775 5.676 0 11.462 0.109 17.251 0.218 5.895 0.113 11.79 0.222 17.572 0.222 25.030 0 50.169-2.045 64.553-16.862l0.993-1.021 0.608-1.29c10.377-22.074 11.138-52.777 10.387-85.429zM753.923 315.87c-35.045 0-68.014 2.103-92.836 5.922l-5.608 0.864-1.376 5.502c-6.915 27.703-5.943 63.020-5.001 97.171 0.553 20.043 1.123 40.769 0.058 59.317l-0.058 0.993 0.174 0.983c0.027 0.147 0.048 0.283 0.065 0.403-1.232 0.338-3.205 0.625-4.512 0.812-5.85 0.853-18.022 2.628-19.111 15.35l-0.031 0.724v58.539l6.755 1.44c19.169 4.089 48.5 5.99 92.303 5.99 21.105 0 42.967-0.42 64.109-0.823 19.405-0.369 37.728-0.72 53.958-0.72 10.196 0 18.627 0.14 25.771 0.427l5.83 0.232 2.331-5.349c7.325-16.783 10.865-50.111-1.529-69.038-4.267-6.516-10.018-10.738-16.865-12.455-0.608-17.22-0.099-35.85 0.386-53.937 0.949-35.086 1.929-71.366-4.977-99.994l-1.345-5.564-5.656-0.87c-24.825-3.816-57.795-5.919-92.836-5.919zM669.42 337.831c23.252-3.168 52.961-4.895 84.504-4.895 31.522 0 61.215 1.727 84.456 4.888 5.028 25.679 4.147 58.307 3.29 89.938-0.567 20.985-1.154 42.687-0.044 62.549l0.468 8.349 8.933-0.307c4.308 0 7.363 1.731 9.902 5.612 6.97 10.646 6.717 32.55 2.116 47.548-5.926-0.157-12.605-0.232-20.238-0.232-16.394 0-34.796 0.352-54.282 0.724-21.064 0.403-42.844 0.819-63.785 0.819-37.584 0-63.959-1.389-81.992-4.352v-42.919c1.232-0.338 3.219-0.628 4.533-0.819 5.12-0.744 12.131-1.768 16.299-7.537 2.434-3.366 3.328-7.554 2.662-12.465 1.041-19.029 0.468-39.782-0.085-59.863-0.84-30.672-1.713-62.304 3.263-87.037zM612.376 24.958c-24.245 0-45.602 2.123-60.146 5.977l-2.427 0.642-1.693 1.857c-11.605 12.728-12.561 33.222-11.807 56.972-83.354 43.704-124.774 116.343-126.508 221.826-1.28 0.399-3.267 0.85-4.615 1.157-6.318 1.434-16.889 3.837-18.79 15.459l-0.113 1.376v47.978l5.304 2.171c18.763 7.666 47.8 11.554 86.313 11.554 39.011 0 77.097-3.939 96.324-6.291l2.898-0.355 2.072-2.055c8.175-8.093 7.714-21.555 7.27-34.577-0.154-4.424-0.297-8.615-0.106-12.363 1.553-6.134 0.986-11.261-1.686-15.261-4.243-6.349-11.82-7.229-17.35-7.875-1.403-0.16-3.529-0.406-4.837-0.734-4.837-33.577 5.028-53.507 14.285-64.379 10.568-12.411 26.109-19.531 42.643-19.531 29.174 0 61.215 23.091 62.618 73.783l0.246 8.861 8.844-0.584c5.874-0.382 12.377-0.573 19.879-0.573 9.813 0 20.183 0.328 30.218 0.642 10.165 0.321 20.675 0.649 30.754 0.649 23.108 0 39.294-1.778 52.487-5.755l6.537-1.969-0.492-6.81c-7.407-103.578-54.726-174.722-140.674-211.565 0.372-17.964 0.215-35.949-5.499-49.353l-1.724-4.041-4.291-0.945c-16.739-3.683-41.387-5.885-65.935-5.885zM559.278 46.766c13.097-3.065 31.788-4.745 53.101-4.745 21.193 0 42.298 1.686 57.679 4.564 3.348 11.51 2.956 28 2.574 44.005l-0.14 5.902 5.475 2.243c82.029 33.164 126.222 96.065 134.939 192.167-10.462 2.28-23.46 3.321-40.94 3.321-9.813 0-20.186-0.328-30.222-0.642-10.165-0.321-20.671-0.649-30.751-0.649-4.437 0-8.557 0.065-12.425 0.195-5.106-56.047-43.773-81.681-79.162-81.681-21.545 0-41.824 9.308-55.637 25.528-11.803 13.868-24.47 39.089-17.777 80.527l0.379 1.492c3.297 9.298 13.114 10.438 18.978 11.117 1.362 0.16 3.413 0.396 4.727 0.71-0.065 0.433-0.184 1.017-0.399 1.772l-0.246 0.874-0.061 0.905c-0.314 4.796-0.137 9.916 0.034 14.868 0.229 6.741 0.529 15.575-1.075 19.917-19.78 2.321-54.753 5.707-90.429 5.707-32.177 0-57.75-2.877-74.551-8.352v-34.85c1.126-0.604 3.891-1.232 5.615-1.625 5.349-1.215 12.67-2.881 16.64-9.503l1.198-1.997 0.017-2.328c0.748-102.591 40.663-172.285 122.033-213.053l4.922-2.468-0.218-5.502c-0.768-19.248-0.922-38.724 5.721-48.418z" />
<glyph unicode="&#xe63e;" glyph-name="qiv" d="M306.545 292.157c-0.611 11.704-1.137 21.811-1.13 29.218l-10.175 0.806c-2.188-13.848-6.598-30.365-11.267-47.855-12.227-45.797-26.081-97.707-7.305-128.799l3.024-5.007 4.564 3.659c28.798 23.091 24.88 98.246 22.289 147.978zM282.412 156.832c-11.674 28.225 0.567 74.066 11.452 114.848 0.99 3.703 1.966 7.363 2.915 10.967 2.096-41.953 3.912-102.547-14.367-125.815zM323.519 311.777l-14.131 17.449 5.171-21.852c5.997-25.347 1.58-55.098-2.69-83.862-6.407-43.155-12.455-83.913 17.541-105.175l10.056-7.13-2.048 12.158c-1.884 11.185-0.853 31.833 0.341 55.743 2.413 48.292 5.414 108.397-14.24 132.669zM327.533 179.616c-0.84-16.831-1.601-32.085-1.328-43.971-14.148 19.412-9.482 50.818-4.205 86.357 2.284 15.391 4.608 31.051 5.424 46.356 3.202-26.825 1.495-61.007 0.109-88.743zM371.18 195.379c-4.529 37.85-9.216 76.991-21.19 108.575l-9.817-2.772c4.233-22.323 3.84-50.074 3.461-76.906-0.782-55.555-1.594-113.002 37.833-132.035l10.752-5.192-3.652 11.366c-9.213 28.672-13.37 63.389-17.388 96.963zM353.874 224.13c0.099 7.107 0.201 14.278 0.218 21.405 2.782-16.783 4.867-34.212 6.922-51.374 3.447-28.809 6.997-58.457 13.769-84.832-22.217 21.968-21.555 69.065-20.91 114.801zM439.924 161.669c-15.374 50.859-31.276 103.455-65.437 137.667l-9.854 9.871 1.126-13.899c6.342-78.244 21.122-150.002 45.172-219.378l1.362-3.925 4.123 0.522c3.932 0.502 7.656 0.748 11.383 0.748 11.885 0 21.176-2.516 31.014-5.185 2.331-0.635 4.659-1.263 7.025-1.86l10.755-2.717-4.908 9.946c-13.148 26.641-22.61 57.941-31.761 88.211zM427.803 83.514c-2.823 0-5.639-0.123-8.52-0.375-21.422 62.778-35.195 127.611-41.95 197.608 25.668-32.324 39.431-77.851 52.787-122.037 8.158-26.989 16.561-54.784 27.675-79.739-8.929 2.369-18.36 4.543-29.993 4.543zM1001.349 758.047c-0.795 6.946-4.089 13.831-9.281 19.388l-45.476 48.701c-6.574 7.035-15.254 11.069-23.822 11.069-6.192 0-11.96-2.202-16.237-6.192l-52.736-49.244c-4.908-4.594-7.318-10.851-7.352-17.493h-174.834v33.044c0 11.687-9.479 21.163-21.166 21.163s-21.163-9.475-21.163-21.163v-33.044h-73.936v33.044c0 11.687-9.482 21.163-21.166 21.163-11.687 0-21.166-9.475-21.166-21.163v-33.044h-73.94v33.044c0 11.687-9.479 21.163-21.163 21.163-11.687 0-21.163-9.475-21.163-21.163v-33.044h-73.943v33.044c0 11.687-9.482 21.163-21.166 21.163-11.687 0-21.163-9.475-21.163-21.163v-33.044h-126.242c-3.43 33.847-32.092 60.348-66.83 60.348-37.038 0-67.168-30.133-67.168-67.168 0-37.041 30.133-67.174 67.168-67.174 34.734 0 63.396 26.501 66.83 60.344h126.242v-33.051c0-4.461 1.386-8.591 3.741-12.005-8.284 1.201-15.189 3-20.234 5.362l-7.608 3.56 0.317-8.393c0.652-17.172 1.113-34.857 1.556-51.958 2.775-106.728 5.639-217.091 57.382-278.32l6.134-7.26 2.69 9.117c26.283 89.129 43.134 196.516 51.521 328.291l0.478 7.489-7.148-2.287c-12.377-3.966-31.99-6.673-51.47-7.216 3.099 3.68 4.973 8.428 4.973 13.616v33.051h73.94v-33.051c0-3.284 0.771-6.38 2.103-9.151-5.151 0.928-9.926 1.922-14.001 2.864l-6.414 1.485 0.14-6.581c2.724-129.222-23.654-231.721-49.162-330.844l-4.949-19.244c-7.81 2.591-15.541 2.864-24.17-2.632 9.021-33.754 53.371-32.167 83.398-44.906 0 10.687 0 21.385 0 32.072-24.661-5.349-40.96 8.359-56.504 14.476l8.516 7.298c83.108 71.206 117.214 188.638 142.855 343.050l1.577 9.506-8.762-4.014c-8.98-4.116-20.883-6.202-35.376-6.202-0.42 0-0.84 0.024-1.26 0.027 2.707 3.557 4.335 7.98 4.335 12.797v33.051h73.94v-33.051c0-4.57 1.464-8.793 3.929-12.254-11.377 1.154-21.385 3.127-28.887 5.799l-6.369 2.27-0.457-6.748c-6.666-98.406-37.584-203.090-82.705-280.026-3.806-6.492-9.1-13.175-14.22-19.64-12.78-16.135-25.993-32.819-18.057-49.316l2.454-5.103 4.83 2.956c129.423 79.162 203.65 193.659 226.918 350.031l1.256 8.441-8.038-2.864c-10.469-3.734-25.798-6.103-42.977-6.765 2.908 3.625 4.652 8.212 4.652 13.22v33.051h73.936v-33.051c0-3.475 0.853-6.748 2.338-9.639-7.547 0.945-15.090 2.068-22.487 3.403l-5.523 0.997-0.488-5.591c-15.613-178.736-116.487-274.016-209.814-349.29l-17.125-13.814 21.463 4.83c173.773 39.12 286.228 155.706 343.791 356.413l2.553 8.892-8.888-2.56c-14.95-4.308-33.526-6.492-55.221-6.492-4.045 0-8.219 0.106-12.448 0.263 2.615 3.519 4.181 7.864 4.181 12.588v33.051h178.043c1.546-3.202 3.622-6.304 6.27-9.144l45.476-48.705c6.574-7.031 15.254-11.066 23.818-11.066 6.195 0 11.964 2.202 16.244 6.195l52.712 49.231c5.499 5.127 8.113 12.752 7.175 20.913zM87.405 714.168c-23.863 0-43.274 19.415-43.274 43.281 0 23.863 19.415 43.274 43.274 43.274 23.866 0 43.281-19.415 43.281-43.274 0-23.866-19.415-43.281-43.281-43.281zM317.399 390.151c-43.609 59.979-46.302 163.751-48.913 264.253-0.379 14.585-0.768 29.59-1.28 44.37 13.548-4.195 30.607-5.168 43.517-5.168 19.323 0 39.772 2.229 54.562 5.823-8.172-123.057-23.866-224.44-47.886-309.279zM466.995 698.423c-23.736-139.831-55.091-247.982-125.372-316.727 24.515 95.379 49.005 194.495 47.302 318.201 12.991-2.71 30.126-5.393 47.073-5.393 11.827 0 22.211 1.314 30.996 3.919zM374.142 367.933c-0.085 9.605 8.837 20.873 18.19 32.679 5.335 6.741 10.858 13.708 15.025 20.818 44.899 76.561 75.96 180.040 83.62 278.060 13.175-3.581 30.894-5.591 49.889-5.591 18.203 0 35.236 1.847 48.224 5.154-23.729-146.719-94.119-255.153-214.948-331.121zM729.095 699.136c-54.613-183.013-156.751-292.925-311.678-335.206 88.675 73.656 178.951 168.4 195.396 336.367 22.589-3.765 46.199-5.82 67.072-5.82 18.609 0 35.113 1.567 49.21 4.659zM977.626 754.367l-52.214-48.763c-0.051-0.003-0.113-0.007-0.195-0.007-1.543 0-4.11 1.079-6.356 3.482l-45.472 48.701c-2.652 2.843-3.202 5.775-3.021 6.769l52.214 48.753c0.051 0.003 0.113 0.007 0.191 0.007 1.546 0 4.11-1.075 6.359-3.485l45.472-48.698c2.645-2.83 3.202-5.758 3.021-6.758z" />
</font>
</defs>
</svg>
