<?xml version="1.0" encoding="utf-8"?>
<!-- Generator: Adobe Illustrator 17.0.0, SVG Export Plug-In . SVG Version: 6.00 Build 0)  -->
<!DOCTYPE svg PUBLIC "-//W3C//DTD SVG 1.1//EN" "http://www.w3.org/Graphics/SVG/1.1/DTD/svg11.dtd">
<svg version="1.1" id="Layer_1" xmlns="http://www.w3.org/2000/svg" xmlns:xlink="http://www.w3.org/1999/xlink" x="0px" y="0px"
	 width="200px" height="200px" viewBox="0 0 200 200" enable-background="new 0 0 200 200" xml:space="preserve">
<circle fill="#86AC3F" cx="100" cy="100" r="99.092"/>
<g>
	<path fill="#FFFFFF" d="M104.192,28.278c-0.301,3.094,0.893,5.688,2.655,8.118c3.689,5.086,4.049,10.44,0.974,15.904
		c-3.997,7.102-3.247,13.856,1.045,20.536c4.028,6.269,9.258,11.434,14.713,16.399c13.003,11.832,19.456,26.393,18.809,44.084
		c-0.761,20.811-17.417,37.635-38.21,38.56c-8.584,0.382-16.898-0.451-24.83-4.002c-15.962-7.146-22.769-21.767-17.877-38.526
		c0.536-1.838,1.1-3.668,1.639-5.506c1.187-4.045,0.746-7.647-2.207-10.983c-3.549-4.01-4.37-8.691-1.961-14.045
		c0.498,5.609,4.601,7.816,8.666,10.343c6.379,3.964,8.832,9.968,7.687,17.407c-0.276,1.793-0.718,3.576-0.823,5.378
		c-0.573,9.819,7.037,18.146,17.822,19.311c4.412,0.476,8.878,0.489,13.169-1.064c9.845-3.563,15.393-13.603,13.794-24.884
		c-1.441-10.169-6.809-17.922-14.65-24.235c-6.712-5.404-12.213-11.773-14.914-20.139c-3.55-10.996-1.017-20.653,6.683-29.093
		c1.36-1.49,2.767-2.94,4.08-4.47c3.018-3.517,4.443-7.278,2.48-11.962c-1.01-2.409-1.236-5.112,1.302-7.08L104.192,28.278z"/>
	<path fill="#FFFFFF" d="M76.071,83.069c2.024,0.897,3.752,2.206,3.773,4.152c0.072,6.549,4.444,9.483,9.443,12.042
		c4.836,2.476,9.642,4.97,13.888,8.451c8.608,7.057,12.963,23.472,6.255,32.145c-3.779,4.887-11.037,7.143-17.959,5.034
		c-6.552-1.996-10.672-7.233-10.892-13.627c-0.13-3.796,0.642-7.405,1.941-10.91c1.951-5.265,1.462-9.959-2.463-14.272
		c-1.728-1.899-3.262-4.035-4.202-6.559c-0.853-2.29-0.954-4.475-0.258-6.769C76.549,89.613,77.888,86.482,76.071,83.069z"/>
	<path fill="#FCC215" d="M104.238,28.33c0.03-0.09,0.043-0.191,0.096-0.264c0.026-0.036,0.124-0.021,0.189-0.03
		c-0.111,0.081-0.221,0.162-0.332,0.242C104.192,28.278,104.238,28.33,104.238,28.33z"/>
</g>
</svg>
