<?xml version="1.0" encoding="utf-8"?>
<!-- Generator: Adobe Illustrator 17.0.0, SVG Export Plug-In . SVG Version: 6.00 Build 0)  -->
<!DOCTYPE svg PUBLIC "-//W3C//DTD SVG 1.1//EN" "http://www.w3.org/Graphics/SVG/1.1/DTD/svg11.dtd">
<svg version="1.1" id="Layer_1" xmlns="http://www.w3.org/2000/svg" xmlns:xlink="http://www.w3.org/1999/xlink" x="0px" y="0px"
	 width="200px" height="200px" viewBox="0 0 200 200" enable-background="new 0 0 200 200" xml:space="preserve">
<circle fill="#86AC34" cx="100" cy="100" r="99.089"/>
<path fill="#FFFFFF" d="M91.854,34.84c26.964,25.448,46.578,53.59,45.006,92.044c-0.672,16.435-14.723,33.701-29.818,37.465
	c-17.446,4.351-38.047-9.315-42.786-28.443c-2.623-10.587-0.993-20.531,5.163-29.549c2.904-4.253,6.195-8.251,9.431-12.268
	c13.312-16.528,17.748-35.08,12.881-55.795c-0.146-0.622-0.229-1.26-0.312-1.895C91.4,36.253,91.499,36.09,91.854,34.84z
	 M95.696,153.28c21.039-0.841,36.54-19.293,30.617-36.359C123.242,135.307,112.419,146.817,95.696,153.28z"/>
</svg>
