<?xml version="1.0" encoding="utf-8"?>
<!-- Generator: Adobe Illustrator 19.2.1, SVG Export Plug-In . SVG Version: 6.00 Build 0)  -->
<svg version="1.1" id="Layer_1" xmlns="http://www.w3.org/2000/svg" xmlns:xlink="http://www.w3.org/1999/xlink" x="0px" y="0px"
	 viewBox="0 0 200 200" style="enable-background:new 0 0 200 200;" xml:space="preserve">
<style type="text/css">
	.st0{fill:#86AC34;}
	.st1{fill:#FFFFFF;}
</style>
<circle class="st0" cx="100" cy="100" r="99.1"/>
<g>
	<path class="st1" d="M86.5,118.4c0.2-4.1,0.5-7,0.7-8.8c0.2-1.8,0.5-3.3,0.8-4.6c0.3-1.3,0.8-2.4,1.3-3.4c0.5-1,1.2-2.1,2.2-3.4
		c1-1.2,2.2-2.6,3.6-4.2c1.5-1.6,3.5-3.7,6.1-6.3l2.4-2.5c0.8-0.8,1.6-1.6,2.2-2.4c0.7-0.8,1.2-1.5,1.5-2.2c0.3-0.6,0.6-1.2,0.7-1.7
		s0.2-1,0.2-1.6c0-2.5-1.3-4.4-4-5.6c-2.7-1.3-6.5-1.9-11.4-1.9c-6.9,0-14.8,1.5-23.9,4.4l2.3-11.4c0.2-1.3,0.5-2.9,0.9-4.9
		c0.3-1.9,0.7-4.4,1.2-7.5c10.7-1.6,20.6-2.3,29.5-2.3c5.9,0,11.3,0.5,16.1,1.4c4.8,0.9,9,2.5,12.6,4.7c3.6,2.2,6.3,4.8,8.2,7.8
		c1.9,3,2.9,6.3,2.9,9.7c0,1.5-0.1,3-0.4,4.5c-0.3,1.5-0.7,3-1.2,4.3c-0.5,1.4-1.3,2.9-2.4,4.6s-2.3,3.4-3.7,5.1
		c-1.4,1.7-2.6,3-3.5,3.9c-0.9,0.9-2.6,2.6-5.1,4.9c-2.5,2.4-4.4,4.3-5.7,5.6c-1.3,1.4-2.4,2.7-3.2,3.9c-0.8,1.2-1.5,2.5-1.9,3.9
		c-0.5,1.4-0.9,3.4-1.3,6c-4.9-0.1-9.4-0.2-13.3-0.2C96.8,118.3,92.1,118.3,86.5,118.4z M83.2,150l0.7-8.8l1-11.9
		c0-0.5,0.1-1.9,0.2-4c6.2,0.1,11.3,0.1,15.2,0.1c4.2,0,9.2,0,14.9-0.1c-0.5,5.6-0.8,10.3-1,14.2c-0.1,3.9-0.3,7.4-0.5,10.4
		c-6.6-0.1-11.5-0.1-14.8-0.1C95.5,149.9,90.2,149.9,83.2,150z"/>
</g>
</svg>
